<svg width="1039" height="250" xmlns="http://www.w3.org/2000/svg" version="1.1">
 <defs>
  <mask id="cutoutMask">
    <rect width="100%" height="100%" fill="white" />
    
    <path fill="black" d="m956.67926,113.13676c1.11504,-0.00516 2.23008,-0.01031 3.37891,-0.01562c2.98316,0.25907 4.48547,0.86671 7.05859,2.26562c-2.71251,34.06209 -2.71251,34.06209 -11,45c-0.57105,0.76441 -1.14211,1.52883 -1.73047,2.31641c-3.82003,4.7139 -7.29729,7.92356 -13.43359,9.09765c-3.51104,0.31705 -5.84252,0.34343 -8.71094,-1.84375c-5.3112,-5.94957 -5.42794,-11.20534 -5.33203,-19c0.72634,-12.52591 4.91783,-24.08194 14.33203,-32.69531c4.85876,-4.05233 9.14521,-5.15416 15.4375,-5.125z"/>
    <path fill="black" d="m874.11676,114.38676c0.22099,6.64535 -0.60309,12.8359 -1.75,19.375c-0.2359,1.46566 -0.2359,1.46566 -0.47656,2.96094c-1.99126,11.51864 -6.15457,23.78282 -15.77735,31.21094c-1.87109,1.07812 -1.87109,1.07812 -4.99609,2.45312c-0.99,0.495 -0.99,0.495 -2,1c-4.39889,0.50756 -6.48119,0.31324 -10.3125,-2c-4.29195,-4.06305 -4.51496,-8.99849 -5,-14.625c0.40991,-12.29723 4.17144,-25.29522 12.75,-34.375c8.237,-7.30788 16.71144,-9.2474 27.5625,-6z"/>
    <path fill="black" d="m567.02587,115.38676c3.50511,2.23052 5.4176,4.19451 7,8c1.51553,10.47371 0.45915,21.41904 -4,31c-0.4473,0.97711 -0.89461,1.95422 -1.35547,2.96094c-3.47486,6.94972 -7.30394,11.52608 -14.01953,15.41406c-6.78886,1.61639 -12.54285,1.04621 -18.625,-2.375c-1.73722,-5.21165 -0.20048,-10.57947 0.5625,-15.9375c0.14502,-1.17369 0.29004,-2.34738 0.43945,-3.55664c1.85574,-13.06238 7.1164,-23.64347 16.99805,-32.50586c4.02621,-2.69232 8.18226,-3.73313 13,-3z"/>
    <path fill="black" d="m654.02587,112.38676c2.5,1.375 2.5,1.375 4,4c0.79982,4.86557 0.57306,8.75837 -1.5,13.25c-5.25207,5.77728 -10.59365,9.86661 -18.5,10.75c-3.00961,0.13147 -5.99058,0.12539 -9,0c1.30324,-10.35854 5.10034,-19.44306 13.48437,-25.97656c3.65615,-2.46884 7.22319,-2.59181 11.51563,-2.02344z"/>
  </mask>
 </defs>

 <g mask="url(#cutoutMask)">
  <title>Layer 1</title>
  <path fill="#083E4D" d="m165.98544,19.58411c16.79665,14.48123 22.5019,44.45852 27.13281,65.07764c0.44733,1.96152 0.92662,3.91573 1.41407,5.86767c2.24388,9.33784 3.14985,18.80219 4.12353,28.34424c0.17475,1.70519 0.17475,1.70519 0.35303,3.44483c0.10135,1.02633 0.2027,2.05267 0.30713,3.1101c0.27194,2.70534 0.27194,2.70534 1.34131,5.59693c3.19875,-8.22996 6.32853,-16.48578 9.4375,-24.75c0.393,-1.04431 0.786,-2.08861 1.19091,-3.16455c1.97882,-5.2826 3.90841,-10.57433 5.73291,-15.91211c12.3512,-36.08168 12.3512,-36.08168 24.45899,-44.2085c3.96727,-1.75612 7.98316,-2.01911 12.17969,-0.96484c10.00563,6.67042 12.02576,18.84542 14.24169,29.88476c2.32881,12.42785 3.78252,24.98017 5.3086,37.52539c0.64191,5.12418 1.36995,10.2331 2.13721,15.33985c0.11939,0.80921 0.23879,1.61841 0.36181,2.45214c0.46267,3.04385 0.97494,5.87061 1.95069,8.79786c0.42708,-0.93981 0.85416,-1.87962 1.29418,-2.8479c4.55084,-10.00852 9.12267,-20.00729 13.71528,-29.99671c0.89016,-1.93698 1.77861,-3.87473 2.6668,-5.81262c10.40922,-22.62695 22.09742,-47.13692 46.88624,-56.65527c8.51553,-2.84245 16.50666,-2.82147 25.4375,-2.6875c0,0.66 0,1.32 0,2c-1.0725,0.33 -2.14501,0.66 -3.25,1c-9.80887,3.70441 -17.70446,10.41249 -24.75,18c6.93,0.33 13.86,0.66 21,1c-0.994,9.86346 -2.15364,19.42129 -4.20313,29.125c-0.91424,4.44572 -1.72033,8.90139 -2.48437,13.375c-0.13141,0.74185 -0.26281,1.48371 -0.3982,2.24804c-0.75527,4.48397 -1.03995,8.70492 -0.9143,13.25196c0.40089,-0.50789 0.80179,-1.01579 1.21484,-1.53907c5.37147,-6.50422 11.61103,-11.89126 19.78516,-14.46093c17.28149,-1.63358 17.28149,-1.63358 23.55078,3.48047c5.68177,5.95743 5.91058,10.81586 5.74755,18.8164c-0.45222,9.67844 -2.51699,19.25096 -4.23583,28.76563c-0.37813,2.14497 -0.75509,4.29015 -1.13086,6.43554c-0.82518,4.70098 -1.66128,9.39986 -2.50768,14.09706c-0.49334,2.79841 -0.95682,5.602 -1.42396,8.4049c-7.59001,0 -15.18001,0 -23,0c0.57741,-4.06343 1.16041,-8.12584 1.75,-12.1875c0.17756,-1.22421 0.35513,-2.44842 0.53808,-3.70972c1.11449,-7.52381 2.43171,-14.96633 3.96192,-22.41528c2.40643,-11.78573 2.40643,-11.78573 1.75,-23.6875c-2.211,-2.77768 -3.24908,-3.84641 -6.75,-4.5625c-8.09358,1.40081 -13.53888,7.17809 -18.25,13.5625c-4.94375,7.80341 -6.37244,15.77874 -7.6875,24.8125c-0.19917,1.27681 -0.39833,2.55363 -0.60352,3.86914c-0.58526,3.7706 -1.1483,7.54403 -1.70898,11.31836c-0.37999,2.4833 -0.7614,4.96639 -1.14454,7.44922c-0.2823,1.83175 -0.56461,3.66351 -0.85546,5.55078c-7.59001,0 -15.18001,0 -23,0c1.12529,-10.12764 1.12529,-10.12764 1.86035,-14.79395c0.16414,-1.04786 0.32827,-2.09571 0.49739,-3.17532c0.17585,-1.10843 0.3517,-2.21685 0.53288,-3.35886c0.185,-1.17505 0.36999,-2.3501 0.56059,-3.56076c0.59725,-3.78741 1.19784,-7.57429 1.79879,-11.36111c0.30479,-1.92801 0.30479,-1.92801 0.61575,-3.89496c2.26791,-14.34255 4.55806,-28.6783 7.07175,-42.98004c3.12261,-17.33123 3.12261,-17.33123 4.0625,-34.875c-10.69101,18.47828 -17.85035,38.46209 -24.6875,58.625c-8.02076,23.61923 -17.86323,45.66549 -39.125,60.3125c-4.75863,1.58621 -9.22565,1.72913 -14.1875,1.0625c-4.83546,-2.51847 -6.23238,-5.96228 -8,-11c-1.01094,-3.87406 -1.13669,-7.61156 -1.24024,-11.58887c-0.33466,-12.61297 -1.49788,-25.11339 -2.75976,-37.66113c-0.08973,-0.90361 -0.17945,-1.80721 -0.27189,-2.73819c-0.25883,-2.59299 -0.52339,-5.18531 -0.79061,-7.77744c-0.11876,-1.17985 -0.11876,-1.17985 -0.23992,-2.38353c-0.32791,-3.10435 -0.70697,-5.87898 -1.69758,-8.85084c-0.52618,1.40802 -0.52618,1.40802 -1.06299,2.84448c-6.23651,16.62612 -12.58902,33.15419 -20.31201,49.15552c-0.54544,1.14106 -1.09087,2.28212 -1.65284,3.45776c-5.01936,10.19677 -10.90782,19.97782 -18.72216,28.29224c-0.49952,0.53657 -0.99903,1.07314 -1.51368,1.62597c-7.54432,7.83159 -15.56698,13.67041 -26.67382,13.93653c-3.86864,-0.03765 -5.69499,-0.11 -9.12501,-2c-5.08942,-6.07448 -6.16341,-10.48627 -5.9375,-18.3125c0.41823,-2.26212 0.89898,-4.51347 1.4375,-6.75c5.01501,-20.83528 3.62935,-44.1813 0.5625,-65.25c-0.1368,-1.01901 -0.1368,-1.01901 -0.27636,-2.0586c-3.07474,-22.48332 -10.36392,-45.95317 -20.83618,-66.07959c-2.0069,-4.21034 -1.37318,-9.33242 -0.88746,-13.86181c2.29108,-4.93462 5.29391,-7.35282 10,-10c6.0541,-1.94816 13.00746,-0.94378 18.32813,2.55859z"/>
  <path fill="#093D4C" d="m960.67926,102.01176c1.23331,-0.00129 2.46662,-0.00258 3.7373,-0.00391c9.43639,0.10901 17.78029,1.27633 26.7002,4.37891c-0.58689,6.54006 -1.40234,12.99374 -2.48828,19.46875c-0.14316,0.8706 -0.28631,1.74119 -0.43381,2.63817c-0.46054,2.79818 -0.92527,5.59566 -1.39041,8.39308c-0.6399,3.86558 -1.27774,7.73149 -1.91406,11.59766c-0.23378,1.41908 -0.23378,1.41908 -0.47228,2.86683c-0.88481,5.40033 -1.72689,10.80339 -2.5121,16.2191c-0.16975,1.16532 -0.3395,2.33063 -0.5144,3.53125c-0.29466,2.05468 -0.58088,4.11059 -0.85596,6.16797c-1.86301,12.92602 -5.98338,26.24271 -16.41479,34.76563c-14.8016,9.98314 -33.27435,11.60313 -50.62891,8.60156c-4.89096,-1.22928 -9.98002,-2.75507 -14.375,-5.25c-1.25955,-3.77866 -0.48087,-5.03412 0.9375,-8.6875c0.38027,-0.99387 0.76055,-1.98773 1.15234,-3.01172c0.30036,-0.75926 0.60071,-1.51851 0.91016,-2.30078c2.64469,1.04524 5.26812,2.11694 7.875,3.25391c9.70812,4.06527 18.84467,6.49734 29.125,3.12109c7.01272,-2.98219 10.74907,-7.57685 14,-14.375c0.92928,-2.81717 1.57637,-5.66158 2.1875,-8.5625c0.16436,-0.72896 0.32871,-1.45793 0.49805,-2.20898c0.90215,-4.05789 1.67193,-8.12028 2.31445,-12.22852c-0.52207,0.51949 -1.04414,1.03898 -1.58203,1.57422c-9.34069,8.84994 -18.46562,12.69492 -31.41797,12.42578c-6.5136,-0.52635 -11.32311,-3.62451 -16,-8c-4.80952,-6.20175 -6.35279,-11.33985 -6.25,-19.125c0.01341,-1.13659 0.01341,-1.13659 0.0271,-2.29614c0.30456,-14.82561 4.66089,-27.81672 15.12524,-38.68433c12.48379,-11.27492 26.26386,-14.2872 42.66016,-14.26953z"/>
  <path fill="#0A3E4D" d="m587.71337,104.88676c6.4458,4.62581 9.67386,10.42673 11.02734,18.17969c1.84467,15.01002 -2.57318,30.67808 -10.71484,43.32031c-7.45484,9.52203 -17.39943,15.88499 -29.44141,17.75391c-9.24436,0.88915 -16.67838,-0.14115 -25.55859,-2.75391c-0.14623,1.07484 -0.29246,2.14967 -0.44312,3.25708c-0.54315,3.98673 -1.09009,7.97293 -1.63818,11.95898c-0.23671,1.72545 -0.47239,3.45103 -0.70703,5.17676c-0.33739,2.48012 -0.67846,4.9597 -1.02026,7.43921c-0.10421,0.77197 -0.20842,1.54395 -0.31578,2.33931c-0.42553,3.06517 -0.89452,5.88534 -1.87563,8.82866c-7.59,0 -15.18,0 -23,0c1.03901,-9.00479 2.27445,-17.93037 3.78906,-26.86719c0.17349,-1.03305 0.34698,-2.0661 0.52573,-3.13046c0.56014,-3.33439 1.12249,-6.6684 1.68521,-10.00235c1.35427,-8.03212 2.70198,-16.06526 4.03711,-24.10059c0.3926,-2.35367 0.78812,-4.70686 1.18652,-7.05957c2.58368,-15.27372 4.5681,-30.39212 5.77637,-45.83984c7.59,0 15.18,0 23,0c0,4.62 0,9.24 0,14c1.29937,-1.38188 2.59875,-2.76375 3.9375,-4.1875c10.09968,-10.11561 26.32664,-15.78342 39.75,-8.3125z"/>
  <path fill="#083C4C" d="m868.36676,102.19926c1.45986,-0.01837 1.45986,-0.01837 2.94922,-0.03711c9.64503,-0.01921 18.50025,1.86731 27.80078,4.22461c-0.81543,5.08666 -1.6334,10.1729 -2.45361,15.25879c-0.27803,1.72613 -0.55538,3.45236 -0.83203,5.17871c-0.40039,2.49769 -0.80271,4.99505 -1.20655,7.49219c-0.13143,0.81282 -0.26287,1.62565 -0.39828,2.4631c-0.65058,3.9744 -1.35182,7.91991 -2.20328,11.85721c-1.36617,6.55165 -1.88442,13.2219 -2.53125,19.875c-0.13497,1.35161 -0.27038,2.70317 -0.40625,4.05469c-0.3273,3.273 -0.64863,6.5466 -0.96875,9.82031c-7.26,0 -14.52,0 -22,0c0,-4.62 0,-9.24 0,-14c-1.27875,1.38187 -2.5575,2.76375 -3.875,4.1875c-4.60309,4.61034 -9.13303,7.35796 -15.125,9.8125c-0.99,0.43313 -1.98,0.86625 -3,1.3125c-8.33104,1.9092 -16.58228,0.93967 -24.1875,-2.9375c-4.99754,-4.22015 -8.4546,-9.95586 -9.8125,-16.375c-1.24459,-17.50373 2.97531,-33.16 14.375,-46.625c12.06859,-12.31657 27.22231,-15.55164 43.875,-15.5625z"/>
  <path fill="#093E4E" d="m748.11676,66.38676c36.96,0 73.92,0 112,0c-2,14 -2,14 -3,16c-16.17,0 -32.34,0 -49,0c-0.99,7.59 -1.98,15.18 -3,23c-1.89806,10.7105 -1.89806,10.7105 -2.75781,15.24219c-1.54946,8.32077 -2.97056,16.66378 -4.39661,25.00641c-0.3096,1.81016 -0.62004,3.62018 -0.9314,5.43005c-1.79286,10.42353 -3.47611,20.84195 -4.91418,31.32135c-8.58,0 -17.16,0 -26,0c0.99,-5.94 0.99,-5.94 2,-12c0.43283,-2.6171 0.86518,-5.23428 1.29688,-7.85156c2.77532,-16.78502 5.61746,-33.55551 8.61035,-50.30323c1.77227,-9.93837 3.43278,-19.88528 5.09277,-29.84521c-12.54,0 -25.08,0 -38,0c1,-8 1,-8 3,-16z"/>
  <path fill="#093D4D" d="m672.27977,105.96489c4.95779,4.03721 7.06011,8.1753 8.07422,14.45313c0.53217,6.86988 -2.03334,11.72355 -6.32813,16.96875c-8.9365,8.51908 -23.90758,12.94585 -36,13c-1.02867,0.01417 -2.05734,0.02835 -3.11718,0.04296c-2.62921,0.01673 -5.25407,0.0028 -7.88282,-0.04296c0.27275,6.65509 0.95212,12.51958 5,18c4.52472,3.71258 9.77851,3.55083 15.41407,3.42187c7.74911,-0.91166 15.14115,-3.82445 21.83593,-7.79687c0.9075,-0.53626 1.815,-1.0725 2.75,-1.625c0.66,0.32999 1.32,0.65999 2,1c-1.15384,10.48494 -1.15384,10.48494 -5.15625,13.76953c-2.90648,1.34638 -5.77368,2.31653 -8.84375,3.23047c-1.09183,0.388 -2.18367,0.77601 -3.30859,1.17578c-12.05338,3.98131 -27.02263,5.13642 -38.93359,-0.17578c-7.00661,-4.01889 -12.04432,-9.59816 -14.29297,-17.42188c-2.64094,-14.64722 0.93761,-28.07987 8.53515,-40.57812c12.66391,-17.21353 39.96831,-30.29474 60.25391,-17.42188z"/>
  <path fill="#f6745e" d="m162.45579,17.31898c18.0899,10.49813 27.34634,35.00578 33.03296,55.09308c9.92428,37.1159 10.15212,80.33421 -4.86835,116.11632c-3.34792,6.28319 -6.59086,9.63141 -13.21108,11.89407c-9.32855,1.79382 -18.23468,2.47412 -26.95016,-2.07049c-3.65387,-4.83724 -3.73607,-7.90447 -3.45853,-13.99832c1.00584,-6.14374 3.2544,-11.46338 5.66038,-17.12094c11.30597,-27.22288 9.44242,-59.52822 0.75506,-87.25884c-4.25459,-11.65507 -10.12307,-22.57938 -16.38976,-33.12786c-3.99154,-6.75509 -4.85517,-11.33059 -4.22416,-19.26457c6.29549,-13.41637 17.21866,-15.98454 29.65363,-10.26244z"/>
  <path fill="#093E4D" d="m486.58837,102.01176c1.44536,-0.0174 1.44536,-0.0174 2.91992,-0.03516c6.7038,0.02713 12.18006,1.2264 18.51758,3.41016c-0.66,3.96 -1.32,7.92 -2,12c-4.38115,1.09529 -4.68752,0.94065 -8.4375,-0.9375c-6.38766,-2.74299 -14.1693,-3.68905 -20.82031,-1.22656c-2.04813,1.20735 -2.04813,1.20735 -3.74219,4.16406c-0.01437,4.13941 -0.01437,4.13941 1,8c3.12801,2.96521 6.63534,5.00607 10.36865,7.09521c7.65436,4.30114 15.7099,9.14045 18.63135,17.90479c0.67316,7.44886 0.61393,13.87105 -4,20c-6.1236,7.18116 -15.80523,10.88791 -25,12c-12.36857,0.65296 -23.37195,-0.34878 -35,-5c0.99,-4.62 1.98,-9.24 3,-14c2.52425,1.0097 5.04845,2.01951 7.57031,3.03516c1.26457,0.50853 1.26457,0.50853 2.55469,1.02734c1.2723,0.5124 1.2723,0.5124 2.57031,1.03516c6.56359,2.56981 13.1863,3.05122 19.86719,0.58984c2.6575,-1.61843 2.6575,-1.61843 4.4375,-4.6875c0.34015,-3.99681 0.13707,-6.60497 -2,-10c-1.96328,-1.59118 -1.96328,-1.59118 -4.32422,-2.95312c-0.86432,-0.53754 -1.72863,-1.07508 -2.61914,-1.62891c-1.80823,-1.0991 -3.61809,-2.19552 -5.42969,-3.28906c-6.29362,-3.92246 -12.23056,-8.33613 -15.62695,-15.12891c-0.9524,-7.61922 -0.27793,-13.4224 4.10937,-19.80859c8.57027,-9.93372 20.96926,-11.71732 33.45313,-11.56641z"/>
  <path fill="#093D4D" d="m741.27587,102.26176c1.26328,0.01805 2.52656,0.03609 3.82813,0.05469c0.96421,0.0232 1.92843,0.0464 2.92187,0.07031c-1.52464,7.49613 -3.68006,14.71359 -6,22c-0.99,-0.05801 -1.98,-0.11602 -3,-0.17578c-9.73104,-0.52776 -9.73104,-0.52776 -18.35938,3.42969c-9.47323,10.08223 -11.3778,22.96145 -13.26562,36.05859c-0.32364,2.19832 -0.64978,4.39624 -0.97861,6.5938c-0.29527,1.98015 -0.58357,3.96134 -0.87149,5.94258c-0.5249,3.15112 -0.5249,3.15112 -1.5249,6.15112c-7.59,0 -15.18,0 -23,0c1.12019,-10.0817 1.12019,-10.0817 2.05078,-14.73047c0.20206,-1.0356 0.40412,-2.0712 0.61231,-3.13818c0.2143,-1.09522 0.42861,-2.19044 0.64941,-3.31885c1.94134,-10.19843 3.56937,-20.39978 4.9375,-30.6875c0.16282,-1.21583 0.32565,-2.43166 0.49341,-3.68433c1.00832,-7.80361 1.71073,-15.59115 2.25659,-23.44067c7.59,0 15.18,0 23,0c-0.33,6.27 -0.66,12.54 -1,19c1.155,-1.67063 2.31,-3.34125 3.5,-5.0625c6.48102,-8.91714 12.34068,-15.27378 23.75,-15.0625z"/>
  <path fill="#093E4D" d="m417.02587,103.38676c7.92,0 15.84,0 24,0c-1.30859,11.23696 -3.01073,22.33868 -4.97214,33.47855c-2.66302,15.14427 -5.10637,30.26259 -7.02786,45.52145c-7.59,0 -15.18,0 -23,0c0.65814,-7.23949 1.41524,-14.30483 2.55859,-21.46094c0.14922,-0.95242 0.29843,-1.90485 0.45217,-2.88614c0.47227,-3.00984 0.94937,-6.01888 1.42674,-9.02792c0.31608,-2.00776 0.63184,-4.01557 0.94727,-6.02344c2.36696,-15.05526 2.36696,-15.05526 3.24853,-20.55957c0.17386,-1.09925 0.34773,-2.19849 0.52686,-3.33105c0.14187,-0.88639 0.28375,-1.77279 0.42993,-2.68604c0.58642,-4.32744 0.97538,-8.67958 1.40991,-13.0249z"/>
  <path fill="#0A3F4F" d="m440.62247,66.57426c3.63673,1.98991 5.33319,3.17058 7.3125,6.8125c0.7527,3.84161 0.89595,7.32851 -0.98828,10.84375c-3.08889,3.90176 -5.94739,5.91205 -10.85156,6.49219c-8.34322,0.10521 -8.34322,0.10521 -12.28516,-2.02344c-2.73802,-3.37689 -3.70144,-5.95293 -4.25,-10.25c0.64187,-5.24194 3.23772,-8.10213 7.1875,-11.4375c5.06717,-2.58326 8.54555,-2.15376 13.875,-0.4375z"/>
  <path fill="#f6745e" d="m115.3345,46.72301c14.32418,8.31277 21.65375,27.71875 26.1566,43.62454c7.85838,29.38961 8.03879,63.61131 -3.85492,91.94478c-2.65099,4.97524 -5.21886,7.62647 -10.46097,9.41812c-7.38666,1.4204 -14.43883,1.95909 -21.34004,-1.63948c-2.89325,-3.83029 -2.95834,-6.25902 -2.73858,-11.08434c0.79646,-4.86481 2.57695,-9.07709 4.48208,-13.55693c8.95245,-21.55599 7.47682,-47.13644 0.59789,-69.09446c-3.36893,-9.22888 -8.01578,-17.8791 -12.97796,-26.23175c-3.16064,-5.3489 -3.84448,-8.97194 -3.34483,-15.25433c4.98498,-10.62253 13.63431,-12.65709 23.48073,-8.12614z"/>
  <path fill="#f6745e" d="m75.88391,77.72162c9.14632,5.3079 13.82641,17.69906 16.70159,27.85527c5.01776,18.76594 5.13295,40.61728 -2.46145,58.70885c-1.69272,3.1768 -3.33236,4.86968 -6.67957,6.01369c-4.71655,0.90696 -9.21952,1.25092 -13.62611,-1.04685c-1.84741,-2.44573 -1.88897,-3.99653 -1.74865,-7.07761c0.50856,-3.1063 1.64544,-5.79593 2.86191,-8.65641c5.71634,-13.76399 4.77412,-30.09769 0.38176,-44.1184c-2.15114,-5.89285 -5.11826,-11.41622 -8.28672,-16.74957c-2.01814,-3.4154 -2.45479,-5.72879 -2.13575,-9.74024c3.18302,-6.78337 8.70582,-8.08184 14.99299,-5.18873z"/>
  <path fill="#f6745e" d="m49.23246,112.59928c5.12414,2.80378 7.51445,4.46734 10.30329,9.59879c1.06055,5.41282 1.26239,10.32585 -1.39248,15.27881c-4.35224,5.49757 -8.37985,8.33006 -15.28981,9.14747c-11.75557,0.14824 -11.75557,0.14824 -17.30975,-2.85102c-3.85786,-4.75803 -5.21532,-8.38766 -5.98824,-14.44221c0.90439,-7.38588 4.56194,-11.41587 10.12716,-16.1154c7.13963,-3.6398 12.04065,-3.03464 19.54983,-0.61644z"/>
 </g>
</svg>
