<?xml version="1.0" encoding="UTF-8"?>
<svg version="1.1" xmlns="http://www.w3.org/2000/svg" width="1536" height="1024">
<path d="M0,0 L1536,0 L1536,1024 L0,1024 Z " fill="#FDFDFD" transform="translate(0,0)"/>
<path d="M0,0 L6,0 L6,1 L9,1 L9,2 L12,2 L12,3 L13,3 L13,4 L15,4 L15,5 L16,5 L16,6 L17,6 L17,7 L18,7 L18,9 L19,9 L19,10 L20,10 L20,12 L21,12 L21,13 L22,13 L22,15 L23,15 L23,17 L24,17 L24,19 L25,19 L25,22 L26,22 L26,23 L27,23 L27,26 L28,26 L28,28 L29,28 L29,30 L30,30 L30,32 L31,32 L31,35 L32,35 L32,38 L33,38 L33,41 L34,41 L34,44 L35,44 L35,47 L36,47 L36,50 L37,50 L37,55 L38,55 L38,58 L39,58 L39,61 L40,61 L40,65 L41,65 L41,71 L42,71 L42,76 L43,76 L43,81 L44,81 L44,85 L45,85 L45,95 L46,95 L46,104 L47,104 L47,112 L48,112 L48,116 L49,116 L49,115 L50,115 L50,111 L51,111 L51,109 L52,109 L52,107 L53,107 L53,105 L54,105 L54,102 L55,102 L55,100 L56,100 L56,97 L57,97 L57,94 L58,94 L58,92 L59,92 L59,89 L60,89 L60,87 L61,87 L61,84 L62,84 L62,81 L63,81 L63,78 L64,78 L64,75 L65,75 L65,73 L66,73 L66,70 L67,70 L67,68 L68,68 L68,65 L69,65 L69,61 L70,61 L70,58 L71,58 L71,57 L72,57 L72,54 L73,54 L73,51 L74,51 L74,49 L75,49 L75,47 L76,47 L76,45 L77,45 L77,43 L78,43 L78,41 L79,41 L79,39 L80,39 L80,38 L81,38 L81,36 L82,36 L82,35 L83,35 L83,34 L84,34 L84,32 L85,32 L85,31 L86,31 L86,30 L87,30 L87,29 L89,29 L89,28 L90,28 L90,27 L92,27 L92,26 L102,26 L102,27 L104,27 L104,28 L105,28 L105,29 L106,29 L106,30 L107,30 L107,32 L108,32 L108,33 L109,33 L109,35 L110,35 L110,37 L111,37 L111,40 L112,40 L112,42 L113,42 L113,46 L114,46 L114,51 L115,51 L115,56 L116,56 L116,60 L117,60 L117,66 L118,66 L118,76 L119,76 L119,82 L120,82 L120,88 L121,88 L121,97 L122,97 L122,102 L123,102 L123,108 L124,108 L124,117 L125,117 L125,122 L126,122 L126,120 L127,120 L127,118 L128,118 L128,115 L129,115 L129,113 L130,113 L130,111 L131,111 L131,109 L132,109 L132,107 L133,107 L133,104 L134,104 L134,102 L135,102 L135,100 L136,100 L136,98 L137,98 L137,96 L138,96 L138,93 L139,93 L139,91 L140,91 L140,89 L141,89 L141,87 L142,87 L142,85 L143,85 L143,82 L144,82 L144,80 L145,80 L145,78 L146,78 L146,76 L147,76 L147,74 L148,74 L148,72 L149,72 L149,70 L150,70 L150,68 L151,68 L151,66 L152,66 L152,64 L153,64 L153,62 L154,62 L154,60 L155,60 L155,59 L156,59 L156,57 L157,57 L157,55 L158,55 L158,54 L159,54 L159,52 L160,52 L160,51 L161,51 L161,49 L162,49 L162,48 L163,48 L163,46 L164,46 L164,45 L165,45 L165,44 L166,44 L166,43 L167,43 L167,41 L168,41 L168,40 L170,40 L170,39 L171,39 L171,37 L172,37 L172,36 L174,36 L174,35 L175,35 L175,34 L176,34 L176,33 L177,33 L177,32 L178,32 L178,31 L180,31 L180,30 L181,30 L181,29 L183,29 L183,28 L185,28 L185,27 L187,27 L187,26 L190,26 L190,25 L192,25 L192,24 L196,24 L196,23 L204,23 L204,22 L216,22 L216,24 L212,24 L212,25 L210,25 L210,26 L208,26 L208,27 L207,27 L207,28 L205,28 L205,29 L203,29 L203,30 L202,30 L202,31 L200,31 L200,32 L199,32 L199,33 L197,33 L197,34 L196,34 L196,35 L195,35 L195,36 L194,36 L194,37 L193,37 L193,38 L192,38 L192,39 L191,39 L191,40 L190,40 L190,41 L189,41 L189,42 L188,42 L188,43 L187,43 L187,44 L209,44 L209,47 L208,47 L208,54 L207,54 L207,62 L206,62 L206,65 L205,65 L205,72 L204,72 L204,77 L203,77 L203,84 L202,84 L202,89 L201,89 L201,95 L200,95 L200,103 L201,103 L201,102 L202,102 L202,101 L203,101 L203,99 L204,99 L204,98 L205,98 L205,97 L206,97 L206,96 L207,96 L207,95 L208,95 L208,94 L210,94 L210,93 L211,93 L211,92 L212,92 L212,91 L214,91 L214,90 L215,90 L215,89 L217,89 L217,88 L220,88 L220,87 L222,87 L222,86 L239,86 L239,87 L241,87 L241,88 L243,88 L243,89 L245,89 L245,90 L246,90 L246,91 L247,91 L247,92 L248,92 L248,94 L249,94 L249,96 L250,96 L250,98 L251,98 L251,113 L250,113 L250,119 L249,119 L249,125 L248,125 L248,129 L247,129 L247,135 L246,135 L246,141 L245,141 L245,148 L244,148 L244,154 L243,154 L243,160 L242,160 L242,166 L219,166 L219,164 L220,164 L220,159 L221,159 L221,152 L222,152 L222,144 L223,144 L223,139 L224,139 L224,134 L225,134 L225,128 L226,128 L226,122 L227,122 L227,118 L228,118 L228,104 L227,104 L227,102 L226,102 L226,101 L225,101 L225,100 L223,100 L223,99 L217,99 L217,100 L215,100 L215,101 L213,101 L213,102 L211,102 L211,103 L210,103 L210,104 L209,104 L209,105 L208,105 L208,106 L207,106 L207,107 L206,107 L206,108 L205,108 L205,109 L204,109 L204,110 L203,110 L203,112 L202,112 L202,113 L201,113 L201,115 L200,115 L200,117 L199,117 L199,119 L198,119 L198,121 L197,121 L197,123 L196,123 L196,129 L195,129 L195,133 L194,133 L194,141 L193,141 L193,148 L192,148 L192,153 L191,153 L191,160 L190,160 L190,166 L167,166 L167,161 L168,161 L168,157 L169,157 L169,151 L170,151 L170,143 L171,143 L171,137 L172,137 L172,131 L173,131 L173,124 L174,124 L174,118 L175,118 L175,113 L176,113 L176,107 L177,107 L177,100 L178,100 L178,96 L179,96 L179,89 L180,89 L180,81 L181,81 L181,75 L182,75 L182,71 L183,71 L183,62 L184,62 L184,56 L185,56 L185,46 L184,46 L184,48 L183,48 L183,50 L182,50 L182,51 L181,51 L181,53 L180,53 L180,55 L179,55 L179,57 L178,57 L178,59 L177,59 L177,61 L176,61 L176,63 L175,63 L175,65 L174,65 L174,68 L173,68 L173,70 L172,70 L172,72 L171,72 L171,75 L170,75 L170,77 L169,77 L169,80 L168,80 L168,82 L167,82 L167,85 L166,85 L166,88 L165,88 L165,90 L164,90 L164,93 L163,93 L163,97 L162,97 L162,99 L161,99 L161,102 L160,102 L160,105 L159,105 L159,108 L158,108 L158,111 L157,111 L157,113 L156,113 L156,116 L155,116 L155,119 L154,119 L154,121 L153,121 L153,124 L152,124 L152,126 L151,126 L151,128 L150,128 L150,130 L149,130 L149,132 L148,132 L148,134 L147,134 L147,137 L146,137 L146,138 L145,138 L145,140 L144,140 L144,142 L143,142 L143,143 L142,143 L142,145 L141,145 L141,147 L140,147 L140,148 L139,148 L139,149 L138,149 L138,151 L137,151 L137,152 L136,152 L136,153 L135,153 L135,154 L134,154 L134,155 L133,155 L133,156 L132,156 L132,157 L131,157 L131,158 L130,158 L130,159 L129,159 L129,160 L128,160 L128,161 L127,161 L127,162 L126,162 L126,163 L124,163 L124,164 L123,164 L123,165 L121,165 L121,166 L119,166 L119,167 L117,167 L117,168 L106,168 L106,167 L104,167 L104,166 L103,166 L103,165 L102,165 L102,164 L101,164 L101,162 L100,162 L100,161 L99,161 L99,157 L98,157 L98,152 L97,152 L97,129 L96,129 L96,121 L95,121 L95,109 L94,109 L94,99 L93,99 L93,89 L92,89 L92,84 L91,84 L91,86 L90,86 L90,89 L89,89 L89,91 L88,91 L88,94 L87,94 L87,97 L86,97 L86,99 L85,99 L85,102 L84,102 L84,104 L83,104 L83,107 L82,107 L82,109 L81,109 L81,112 L80,112 L80,114 L79,114 L79,117 L78,117 L78,119 L77,119 L77,122 L76,122 L76,124 L75,124 L75,126 L74,126 L74,129 L73,129 L73,131 L72,131 L72,133 L71,133 L71,135 L70,135 L70,137 L69,137 L69,139 L68,139 L68,141 L67,141 L67,143 L66,143 L66,145 L65,145 L65,147 L64,147 L64,149 L63,149 L63,151 L62,151 L62,152 L61,152 L61,154 L60,154 L60,155 L59,155 L59,157 L58,157 L58,159 L57,159 L57,160 L56,160 L56,162 L55,162 L55,163 L54,163 L54,164 L53,164 L53,165 L52,165 L52,166 L51,166 L51,168 L50,168 L50,169 L49,169 L49,170 L48,170 L48,171 L47,171 L47,172 L46,172 L46,173 L45,173 L45,174 L44,174 L44,175 L43,175 L43,176 L41,176 L41,177 L40,177 L40,178 L39,178 L39,179 L37,179 L37,180 L36,180 L36,181 L34,181 L34,182 L32,182 L32,183 L31,183 L31,184 L27,184 L27,185 L15,185 L15,184 L14,184 L14,183 L12,183 L12,182 L11,182 L11,181 L10,181 L10,179 L9,179 L9,178 L8,178 L8,176 L7,176 L7,172 L6,172 L6,165 L7,165 L7,161 L8,161 L8,155 L9,155 L9,151 L10,151 L10,140 L11,140 L11,112 L10,112 L10,99 L9,99 L9,93 L8,93 L8,85 L7,85 L7,81 L6,81 L6,76 L5,76 L5,72 L4,72 L4,69 L3,69 L3,65 L2,65 L2,61 L1,61 L1,58 L0,58 L0,55 L-1,55 L-1,52 L-2,52 L-2,49 L-3,49 L-3,46 L-4,46 L-4,44 L-5,44 L-5,41 L-6,41 L-6,39 L-7,39 L-7,36 L-8,36 L-8,34 L-9,34 L-9,32 L-10,32 L-10,29 L-11,29 L-11,27 L-12,27 L-12,25 L-13,25 L-13,23 L-14,23 L-14,11 L-13,11 L-13,9 L-12,9 L-12,7 L-11,7 L-11,6 L-10,6 L-10,5 L-9,5 L-9,4 L-8,4 L-8,3 L-6,3 L-6,2 L-4,2 L-4,1 L0,1 Z " fill="#083E4D" transform="translate(357,367)"/>
<path d="M0,0 L28,0 L28,1 L33,1 L33,2 L37,2 L37,3 L40,3 L40,4 L44,4 L44,9 L43,9 L43,14 L42,14 L42,22 L41,22 L41,28 L40,28 L40,33 L39,33 L39,39 L38,39 L38,45 L37,45 L37,51 L36,51 L36,57 L35,57 L35,66 L34,66 L34,71 L33,71 L33,77 L32,77 L32,83 L31,83 L31,87 L30,87 L30,90 L29,90 L29,93 L28,93 L28,95 L27,95 L27,97 L26,97 L26,99 L25,99 L25,101 L24,101 L24,102 L23,102 L23,103 L22,103 L22,105 L21,105 L21,106 L20,106 L20,107 L19,107 L19,108 L18,108 L18,109 L16,109 L16,110 L15,110 L15,111 L13,111 L13,112 L11,112 L11,113 L10,113 L10,114 L8,114 L8,115 L4,115 L4,116 L2,116 L2,117 L-3,117 L-3,118 L-8,118 L-8,119 L-28,119 L-28,118 L-35,118 L-35,117 L-38,117 L-38,116 L-41,116 L-41,115 L-44,115 L-44,114 L-46,114 L-46,113 L-48,113 L-48,112 L-49,112 L-49,110 L-48,110 L-48,108 L-47,108 L-47,106 L-46,106 L-46,102 L-45,102 L-45,99 L-43,99 L-43,100 L-42,100 L-42,101 L-40,101 L-40,102 L-38,102 L-38,103 L-35,103 L-35,104 L-33,104 L-33,105 L-30,105 L-30,106 L-27,106 L-27,107 L-20,107 L-20,108 L-14,108 L-14,107 L-11,107 L-11,106 L-7,106 L-7,105 L-5,105 L-5,104 L-3,104 L-3,103 L-2,103 L-2,102 L0,102 L0,101 L1,101 L1,100 L2,100 L2,98 L3,98 L3,97 L4,97 L4,95 L5,95 L5,94 L6,94 L6,91 L7,91 L7,88 L8,88 L8,84 L9,84 L9,80 L10,80 L10,74 L11,74 L11,69 L12,69 L12,67 L11,67 L11,68 L10,68 L10,69 L9,69 L9,70 L8,70 L8,71 L7,71 L7,72 L6,72 L6,73 L5,73 L5,74 L3,74 L3,75 L2,75 L2,76 L0,76 L0,77 L-2,77 L-2,78 L-4,78 L-4,79 L-7,79 L-7,80 L-9,80 L-9,81 L-15,81 L-15,82 L-22,82 L-22,81 L-28,81 L-28,80 L-30,80 L-30,79 L-32,79 L-32,78 L-33,78 L-33,77 L-35,77 L-35,76 L-36,76 L-36,75 L-37,75 L-37,74 L-38,74 L-38,73 L-39,73 L-39,72 L-40,72 L-40,70 L-41,70 L-41,68 L-42,68 L-42,65 L-43,65 L-43,63 L-44,63 L-44,46 L-43,46 L-43,38 L-42,38 L-42,35 L-41,35 L-41,33 L-40,33 L-40,30 L-39,30 L-39,28 L-38,28 L-38,26 L-37,26 L-37,24 L-36,24 L-36,23 L-35,23 L-35,21 L-34,21 L-34,20 L-33,20 L-33,19 L-32,19 L-32,17 L-31,17 L-31,16 L-30,16 L-30,15 L-29,15 L-29,14 L-28,14 L-28,13 L-27,13 L-27,12 L-25,12 L-25,11 L-24,11 L-24,10 L-23,10 L-23,9 L-22,9 L-22,8 L-20,8 L-20,7 L-18,7 L-18,6 L-16,6 L-16,5 L-14,5 L-14,4 L-12,4 L-12,3 L-9,3 L-9,2 L-4,2 L-4,1 L0,1 Z " fill="#093D4C" transform="translate(1155,453)"/>
<path d="M0,0 L6,0 L6,1 L9,1 L9,2 L12,2 L12,3 L13,3 L13,4 L15,4 L15,5 L16,5 L16,6 L17,6 L17,7 L18,7 L18,9 L19,9 L19,10 L20,10 L20,12 L21,12 L21,13 L22,13 L22,15 L23,15 L23,17 L24,17 L24,19 L25,19 L25,22 L26,22 L26,23 L27,23 L27,26 L28,26 L28,28 L29,28 L29,30 L30,30 L30,32 L31,32 L31,35 L32,35 L32,38 L33,38 L33,41 L34,41 L34,44 L35,44 L35,47 L36,47 L36,50 L37,50 L37,55 L38,55 L38,58 L39,58 L39,61 L40,61 L40,65 L41,65 L41,71 L42,71 L42,76 L43,76 L43,81 L44,81 L44,85 L45,85 L45,95 L46,95 L46,104 L47,104 L47,112 L48,112 L48,116 L49,116 L49,117 L48,117 L48,118 L47,118 L47,133 L48,133 L48,139 L49,139 L49,142 L50,142 L50,145 L51,145 L51,147 L52,147 L52,150 L53,150 L53,151 L54,151 L54,153 L55,153 L55,155 L56,155 L56,156 L57,156 L57,157 L58,157 L58,159 L57,159 L57,160 L56,160 L56,162 L55,162 L55,163 L54,163 L54,164 L53,164 L53,165 L52,165 L52,166 L51,166 L51,168 L50,168 L50,169 L49,169 L49,170 L48,170 L48,171 L47,171 L47,172 L46,172 L46,173 L45,173 L45,174 L44,174 L44,175 L43,175 L43,176 L41,176 L41,177 L40,177 L40,178 L39,178 L39,179 L37,179 L37,180 L36,180 L36,181 L34,181 L34,182 L32,182 L32,183 L31,183 L31,184 L27,184 L27,185 L15,185 L15,184 L14,184 L14,183 L12,183 L12,182 L11,182 L11,181 L10,181 L10,179 L9,179 L9,178 L8,178 L8,176 L7,176 L7,172 L6,172 L6,165 L7,165 L7,161 L8,161 L8,155 L9,155 L9,151 L10,151 L10,140 L11,140 L11,112 L10,112 L10,99 L9,99 L9,93 L8,93 L8,85 L7,85 L7,81 L6,81 L6,76 L5,76 L5,72 L4,72 L4,69 L3,69 L3,65 L2,65 L2,61 L1,61 L1,58 L0,58 L0,55 L-1,55 L-1,52 L-2,52 L-2,49 L-3,49 L-3,46 L-4,46 L-4,44 L-5,44 L-5,41 L-6,41 L-6,39 L-7,39 L-7,36 L-8,36 L-8,34 L-9,34 L-9,32 L-10,32 L-10,29 L-11,29 L-11,27 L-12,27 L-12,25 L-13,25 L-13,23 L-14,23 L-14,11 L-13,11 L-13,9 L-12,9 L-12,7 L-11,7 L-11,6 L-10,6 L-10,5 L-9,5 L-9,4 L-8,4 L-8,3 L-6,3 L-6,2 L-4,2 L-4,1 L0,1 Z " fill="#F26829" transform="translate(357,367)"/>
<path d="M0,0 L16,0 L16,1 L18,1 L18,2 L20,2 L20,3 L22,3 L22,4 L23,4 L23,5 L25,5 L25,6 L26,6 L26,7 L27,7 L27,9 L28,9 L28,10 L29,10 L29,12 L30,12 L30,14 L31,14 L31,17 L32,17 L32,23 L33,23 L33,33 L32,33 L32,39 L31,39 L31,43 L30,43 L30,47 L29,47 L29,50 L28,50 L28,52 L27,52 L27,55 L26,55 L26,57 L25,57 L25,59 L24,59 L24,61 L23,61 L23,62 L22,62 L22,64 L21,64 L21,65 L20,65 L20,66 L19,66 L19,67 L18,67 L18,68 L17,68 L17,69 L16,69 L16,70 L15,70 L15,71 L14,71 L14,72 L13,72 L13,73 L12,73 L12,74 L10,74 L10,75 L8,75 L8,76 L7,76 L7,77 L5,77 L5,78 L3,78 L3,79 L0,79 L0,80 L-4,80 L-4,81 L-10,81 L-10,82 L-22,82 L-22,81 L-27,81 L-27,80 L-30,80 L-30,79 L-33,79 L-33,81 L-34,81 L-34,88 L-35,88 L-35,95 L-36,95 L-36,101 L-37,101 L-37,107 L-38,107 L-38,115 L-39,115 L-39,118 L-62,118 L-62,114 L-61,114 L-61,111 L-60,111 L-60,102 L-59,102 L-59,98 L-58,98 L-58,92 L-57,92 L-57,85 L-56,85 L-56,78 L-55,78 L-55,71 L-54,71 L-54,66 L-53,66 L-53,60 L-52,60 L-52,54 L-51,54 L-51,46 L-50,46 L-50,40 L-49,40 L-49,34 L-48,34 L-48,28 L-47,28 L-47,23 L-46,23 L-46,15 L-45,15 L-45,1 L-22,1 L-22,11 L-23,11 L-23,16 L-22,16 L-22,15 L-21,15 L-21,14 L-20,14 L-20,13 L-19,13 L-19,12 L-18,12 L-18,11 L-17,11 L-17,10 L-16,10 L-16,9 L-15,9 L-15,8 L-14,8 L-14,7 L-13,7 L-13,6 L-11,6 L-11,5 L-10,5 L-10,4 L-8,4 L-8,3 L-6,3 L-6,2 L-4,2 L-4,1 L0,1 Z " fill="#0A3E4D" transform="translate(773,453)"/>
<path d="M0,0 L23,0 L23,1 L31,1 L31,2 L34,2 L34,3 L38,3 L38,4 L42,4 L42,6 L41,6 L41,11 L40,11 L40,17 L39,17 L39,23 L38,23 L38,30 L37,30 L37,35 L36,35 L36,41 L35,41 L35,47 L34,47 L34,51 L33,51 L33,61 L32,61 L32,67 L31,67 L31,80 L9,80 L9,71 L10,71 L10,65 L9,65 L9,66 L8,66 L8,67 L7,67 L7,68 L6,68 L6,69 L5,69 L5,70 L4,70 L4,71 L3,71 L3,72 L2,72 L2,73 L1,73 L1,74 L0,74 L0,75 L-2,75 L-2,76 L-3,76 L-3,77 L-5,77 L-5,78 L-7,78 L-7,79 L-10,79 L-10,80 L-13,80 L-13,81 L-16,81 L-16,82 L-26,82 L-26,81 L-32,81 L-32,80 L-34,80 L-34,79 L-36,79 L-36,78 L-37,78 L-37,77 L-39,77 L-39,76 L-40,76 L-40,74 L-41,74 L-41,73 L-42,73 L-42,72 L-43,72 L-43,70 L-44,70 L-44,68 L-45,68 L-45,65 L-46,65 L-46,62 L-47,62 L-47,50 L-46,50 L-46,41 L-45,41 L-45,37 L-44,37 L-44,35 L-43,35 L-43,32 L-42,32 L-42,30 L-41,30 L-41,28 L-40,28 L-40,26 L-39,26 L-39,24 L-38,24 L-38,22 L-37,22 L-37,21 L-36,21 L-36,20 L-35,20 L-35,18 L-34,18 L-34,17 L-33,17 L-33,16 L-32,16 L-32,15 L-31,15 L-31,14 L-30,14 L-30,13 L-29,13 L-29,12 L-28,12 L-28,11 L-26,11 L-26,10 L-25,10 L-25,9 L-24,9 L-24,8 L-22,8 L-22,7 L-20,7 L-20,6 L-18,6 L-18,5 L-16,5 L-16,4 L-14,4 L-14,3 L-11,3 L-11,2 L-7,2 L-7,1 L0,1 Z " fill="#083C4C" transform="translate(1065,453)"/>
<path d="M0,0 L112,0 L112,2 L111,2 L111,7 L110,7 L110,14 L109,14 L109,16 L60,16 L60,19 L59,19 L59,26 L58,26 L58,31 L57,31 L57,39 L56,39 L56,43 L55,43 L55,48 L54,48 L54,56 L53,56 L53,61 L52,61 L52,67 L51,67 L51,73 L50,73 L50,78 L49,78 L49,85 L48,85 L48,91 L47,91 L47,97 L46,97 L46,102 L45,102 L45,111 L44,111 L44,116 L18,116 L18,114 L19,114 L19,107 L20,107 L20,104 L21,104 L21,98 L22,98 L22,90 L23,90 L23,84 L24,84 L24,79 L25,79 L25,72 L26,72 L26,68 L27,68 L27,64 L28,64 L28,57 L29,57 L29,50 L30,50 L30,45 L31,45 L31,38 L32,38 L32,34 L33,34 L33,26 L34,26 L34,20 L35,20 L35,16 L-3,16 L-3,12 L-2,12 L-2,8 L-1,8 L-1,3 L0,3 Z " fill="#093E4E" transform="translate(956,417)"/>
<path d="M0,0 L21,0 L21,1 L23,1 L23,2 L26,2 L26,3 L28,3 L28,4 L30,4 L30,5 L31,5 L31,6 L32,6 L32,7 L33,7 L33,8 L34,8 L34,10 L35,10 L35,12 L36,12 L36,16 L37,16 L37,25 L36,25 L36,27 L35,27 L35,29 L34,29 L34,31 L33,31 L33,32 L32,32 L32,33 L31,33 L31,35 L30,35 L30,36 L29,36 L29,37 L27,37 L27,38 L26,38 L26,39 L24,39 L24,40 L22,40 L22,41 L20,41 L20,42 L18,42 L18,43 L15,43 L15,44 L12,44 L12,45 L10,45 L10,46 L6,46 L6,47 L-5,47 L-5,48 L-16,48 L-16,58 L-15,58 L-15,60 L-14,60 L-14,63 L-13,63 L-13,64 L-12,64 L-12,66 L-11,66 L-11,67 L-9,67 L-9,68 L-8,68 L-8,69 L-5,69 L-5,70 L8,70 L8,69 L11,69 L11,68 L15,68 L15,67 L17,67 L17,66 L19,66 L19,65 L22,65 L22,64 L24,64 L24,63 L26,63 L26,62 L27,62 L27,61 L29,61 L29,60 L31,60 L31,61 L30,61 L30,65 L29,65 L29,67 L28,67 L28,73 L27,73 L27,74 L24,74 L24,75 L22,75 L22,76 L20,76 L20,77 L17,77 L17,78 L14,78 L14,79 L10,79 L10,80 L6,80 L6,81 L3,81 L3,82 L-12,82 L-12,81 L-19,81 L-19,80 L-23,80 L-23,79 L-25,79 L-25,78 L-27,78 L-27,77 L-29,77 L-29,76 L-30,76 L-30,75 L-31,75 L-31,74 L-32,74 L-32,73 L-33,73 L-33,72 L-34,72 L-34,71 L-35,71 L-35,70 L-36,70 L-36,68 L-37,68 L-37,66 L-38,66 L-38,63 L-39,63 L-39,59 L-40,59 L-40,46 L-39,46 L-39,38 L-38,38 L-38,35 L-37,35 L-37,32 L-36,32 L-36,30 L-35,30 L-35,28 L-34,28 L-34,26 L-33,26 L-33,24 L-32,24 L-32,22 L-31,22 L-31,21 L-30,21 L-30,20 L-29,20 L-29,18 L-28,18 L-28,17 L-27,17 L-27,16 L-26,16 L-26,15 L-25,15 L-25,14 L-24,14 L-24,13 L-23,13 L-23,12 L-22,12 L-22,11 L-21,11 L-21,10 L-20,10 L-20,9 L-18,9 L-18,8 L-17,8 L-17,7 L-15,7 L-15,6 L-14,6 L-14,5 L-12,5 L-12,4 L-9,4 L-9,3 L-7,3 L-7,2 L-3,2 L-3,1 L0,1 Z " fill="#093D4D" transform="translate(850,453)"/>
<path d="M0,0 L7,0 L7,1 L10,1 L10,2 L12,2 L12,3 L14,3 L14,4 L15,4 L15,5 L17,5 L17,6 L18,6 L18,7 L19,7 L19,8 L20,8 L20,10 L21,10 L21,11 L22,11 L22,12 L23,12 L23,14 L24,14 L24,15 L25,15 L25,17 L26,17 L26,19 L27,19 L27,20 L28,20 L28,22 L29,22 L29,24 L30,24 L30,26 L31,26 L31,28 L32,28 L32,30 L33,30 L33,33 L34,33 L34,36 L35,36 L35,39 L36,39 L36,42 L37,42 L37,47 L38,47 L38,50 L39,50 L39,56 L40,56 L40,63 L41,63 L41,85 L40,85 L40,95 L39,95 L39,101 L38,101 L38,105 L37,105 L37,109 L36,109 L36,112 L35,112 L35,116 L34,116 L34,118 L33,118 L33,120 L32,120 L32,122 L31,122 L31,124 L30,124 L30,125 L29,125 L29,126 L27,126 L27,127 L26,127 L26,128 L23,128 L23,129 L18,129 L18,130 L13,130 L13,129 L6,129 L6,128 L5,128 L5,127 L3,127 L3,126 L2,126 L2,125 L1,125 L1,115 L2,115 L2,113 L3,113 L3,111 L4,111 L4,109 L5,109 L5,106 L6,106 L6,103 L7,103 L7,99 L8,99 L8,95 L9,95 L9,93 L10,93 L10,86 L11,86 L11,66 L10,66 L10,59 L9,59 L9,55 L8,55 L8,51 L7,51 L7,47 L6,47 L6,44 L5,44 L5,42 L4,42 L4,40 L3,40 L3,38 L2,38 L2,36 L1,36 L1,34 L0,34 L0,32 L-1,32 L-1,30 L-2,30 L-2,29 L-3,29 L-3,27 L-4,27 L-4,26 L-5,26 L-5,24 L-6,24 L-6,22 L-7,22 L-7,21 L-8,21 L-8,19 L-9,19 L-9,16 L-10,16 L-10,9 L-9,9 L-9,7 L-8,7 L-8,5 L-7,5 L-7,4 L-6,4 L-6,3 L-4,3 L-4,2 L-3,2 L-3,1 L0,1 Z " fill="#F16729" transform="translate(307,397)"/>
<path d="M0,0 L23,0 L23,1 L26,1 L26,2 L30,2 L30,3 L33,3 L33,5 L32,5 L32,11 L31,11 L31,15 L30,15 L30,16 L27,16 L27,15 L25,15 L25,14 L23,14 L23,13 L21,13 L21,12 L17,12 L17,11 L4,11 L4,12 L2,12 L2,13 L0,13 L0,14 L-1,14 L-1,16 L-2,16 L-2,17 L-3,17 L-3,22 L-2,22 L-2,25 L-1,25 L-1,26 L0,26 L0,27 L1,27 L1,28 L2,28 L2,29 L4,29 L4,30 L6,30 L6,31 L8,31 L8,32 L9,32 L9,33 L11,33 L11,34 L13,34 L13,35 L14,35 L14,36 L16,36 L16,37 L17,37 L17,38 L19,38 L19,39 L20,39 L20,40 L21,40 L21,41 L22,41 L22,42 L23,42 L23,43 L24,43 L24,44 L25,44 L25,46 L26,46 L26,47 L27,47 L27,50 L28,50 L28,62 L27,62 L27,65 L26,65 L26,67 L25,67 L25,68 L24,68 L24,70 L23,70 L23,71 L22,71 L22,72 L21,72 L21,73 L20,73 L20,74 L18,74 L18,75 L17,75 L17,76 L15,76 L15,77 L13,77 L13,78 L11,78 L11,79 L8,79 L8,80 L5,80 L5,81 L-1,81 L-1,82 L-18,82 L-18,81 L-24,81 L-24,80 L-28,80 L-28,79 L-31,79 L-31,78 L-33,78 L-33,77 L-36,77 L-36,75 L-35,75 L-35,71 L-34,71 L-34,67 L-33,67 L-33,63 L-31,63 L-31,64 L-30,64 L-30,65 L-28,65 L-28,66 L-26,66 L-26,67 L-24,67 L-24,68 L-22,68 L-22,69 L-18,69 L-18,70 L-15,70 L-15,71 L-4,71 L-4,70 L-2,70 L-2,69 L0,69 L0,68 L2,68 L2,67 L3,67 L3,65 L4,65 L4,64 L5,64 L5,58 L4,58 L4,56 L3,56 L3,54 L2,54 L2,53 L0,53 L0,52 L-1,52 L-1,51 L-2,51 L-2,50 L-4,50 L-4,49 L-6,49 L-6,48 L-7,48 L-7,47 L-9,47 L-9,46 L-11,46 L-11,45 L-12,45 L-12,44 L-14,44 L-14,43 L-15,43 L-15,42 L-17,42 L-17,41 L-18,41 L-18,40 L-19,40 L-19,39 L-20,39 L-20,38 L-21,38 L-21,37 L-22,37 L-22,36 L-23,36 L-23,35 L-24,35 L-24,33 L-25,33 L-25,31 L-26,31 L-26,19 L-25,19 L-25,17 L-24,17 L-24,15 L-23,15 L-23,13 L-22,13 L-22,12 L-21,12 L-21,10 L-20,10 L-20,9 L-18,9 L-18,8 L-17,8 L-17,7 L-16,7 L-16,6 L-15,6 L-15,5 L-13,5 L-13,4 L-11,4 L-11,3 L-8,3 L-8,2 L-5,2 L-5,1 L0,1 Z " fill="#093E4D" transform="translate(682,453)"/>
<path d="M0,0 L14,0 L14,3 L13,3 L13,7 L12,7 L12,9 L11,9 L11,13 L10,13 L10,16 L9,16 L9,19 L8,19 L8,22 L4,22 L4,21 L-7,21 L-7,22 L-9,22 L-9,23 L-11,23 L-11,24 L-12,24 L-12,25 L-13,25 L-13,26 L-15,26 L-15,27 L-16,27 L-16,29 L-17,29 L-17,30 L-18,30 L-18,31 L-19,31 L-19,33 L-20,33 L-20,35 L-21,35 L-21,37 L-22,37 L-22,39 L-23,39 L-23,43 L-24,43 L-24,45 L-25,45 L-25,51 L-26,51 L-26,58 L-27,58 L-27,63 L-28,63 L-28,69 L-29,69 L-29,77 L-30,77 L-30,80 L-53,80 L-53,76 L-52,76 L-52,71 L-51,71 L-51,66 L-50,66 L-50,60 L-49,60 L-49,54 L-48,54 L-48,50 L-47,50 L-47,44 L-46,44 L-46,35 L-45,35 L-45,30 L-44,30 L-44,20 L-43,20 L-43,14 L-42,14 L-42,1 L-19,1 L-19,6 L-20,6 L-20,13 L-21,13 L-21,22 L-20,22 L-20,20 L-19,20 L-19,19 L-18,19 L-18,17 L-17,17 L-17,16 L-16,16 L-16,14 L-15,14 L-15,13 L-14,13 L-14,11 L-13,11 L-13,10 L-12,10 L-12,9 L-11,9 L-11,8 L-10,8 L-10,7 L-9,7 L-9,6 L-8,6 L-8,5 L-7,5 L-7,4 L-5,4 L-5,3 L-4,3 L-4,2 L-2,2 L-2,1 L0,1 Z " fill="#093D4D" transform="translate(941,453)"/>
<path d="M0,0 L4,0 L4,1 L8,1 L8,2 L10,2 L10,3 L12,3 L12,4 L13,4 L13,5 L14,5 L14,6 L15,6 L15,7 L16,7 L16,9 L17,9 L17,10 L18,10 L18,12 L19,12 L19,14 L20,14 L20,15 L21,15 L21,18 L22,18 L22,20 L23,20 L23,22 L24,22 L24,26 L25,26 L25,30 L26,30 L26,41 L27,41 L27,50 L26,50 L26,58 L25,58 L25,62 L24,62 L24,65 L23,65 L23,68 L22,68 L22,70 L21,70 L21,72 L20,72 L20,73 L19,73 L19,74 L18,74 L18,75 L17,75 L17,76 L15,76 L15,77 L10,77 L10,78 L3,78 L3,77 L1,77 L1,76 L-1,76 L-1,75 L-2,75 L-2,73 L-3,73 L-3,68 L-2,68 L-2,66 L-1,66 L-1,64 L0,64 L0,61 L1,61 L1,59 L2,59 L2,54 L3,54 L3,36 L2,36 L2,34 L1,34 L1,30 L0,30 L0,27 L-1,27 L-1,24 L-2,24 L-2,22 L-3,22 L-3,20 L-4,20 L-4,19 L-5,19 L-5,17 L-6,17 L-6,15 L-7,15 L-7,13 L-8,13 L-8,11 L-9,11 L-9,6 L-8,6 L-8,4 L-7,4 L-7,3 L-6,3 L-6,2 L-4,2 L-4,1 L0,1 Z " fill="#093E4D" transform="translate(273,424)"/>
<path d="M0,0 L24,0 L24,4 L23,4 L23,10 L22,10 L22,16 L21,16 L21,22 L20,22 L20,27 L19,27 L19,33 L18,33 L18,38 L17,38 L17,46 L16,46 L16,51 L15,51 L15,57 L14,57 L14,64 L13,64 L13,72 L12,72 L12,79 L-11,79 L-11,73 L-10,73 L-10,68 L-9,68 L-9,60 L-8,60 L-8,54 L-7,54 L-7,49 L-6,49 L-6,43 L-5,43 L-5,37 L-4,37 L-4,31 L-3,31 L-3,23 L-2,23 L-2,19 L-1,19 L-1,10 L0,10 Z " fill="#093E4D" transform="translate(624,454)"/>
<path d="M0,0 L13,0 L13,1 L15,1 L15,2 L17,2 L17,7 L16,7 L16,13 L15,13 L15,18 L14,18 L14,23 L13,23 L13,30 L12,30 L12,36 L11,36 L11,38 L10,38 L10,40 L9,40 L9,42 L8,42 L8,44 L7,44 L7,45 L6,45 L6,47 L5,47 L5,48 L4,48 L4,50 L3,50 L3,51 L2,51 L2,52 L1,52 L1,53 L0,53 L0,54 L-1,54 L-1,55 L-3,55 L-3,56 L-4,56 L-4,57 L-7,57 L-7,58 L-16,58 L-16,57 L-17,57 L-17,56 L-18,56 L-18,55 L-19,55 L-19,54 L-20,54 L-20,53 L-21,53 L-21,51 L-22,51 L-22,47 L-23,47 L-23,34 L-22,34 L-22,28 L-21,28 L-21,24 L-20,24 L-20,21 L-19,21 L-19,19 L-18,19 L-18,17 L-17,17 L-17,15 L-16,15 L-16,14 L-15,14 L-15,12 L-14,12 L-14,11 L-13,11 L-13,9 L-12,9 L-12,8 L-11,8 L-11,7 L-10,7 L-10,6 L-9,6 L-9,5 L-8,5 L-8,4 L-6,4 L-6,3 L-5,3 L-5,2 L-3,2 L-3,1 L0,1 Z " fill="#F9FBFB" transform="translate(1158,464)"/>
<path d="M0,0 L13,0 L13,1 L17,1 L17,9 L16,9 L16,13 L15,13 L15,22 L14,22 L14,25 L13,25 L13,32 L12,32 L12,36 L11,36 L11,38 L10,38 L10,40 L9,40 L9,42 L8,42 L8,43 L7,43 L7,45 L6,45 L6,47 L5,47 L5,48 L4,48 L4,49 L3,49 L3,51 L2,51 L2,52 L1,52 L1,53 L0,53 L0,54 L-2,54 L-2,55 L-3,55 L-3,56 L-6,56 L-6,57 L-8,57 L-8,58 L-15,58 L-15,57 L-17,57 L-17,56 L-18,56 L-18,55 L-19,55 L-19,54 L-20,54 L-20,53 L-21,53 L-21,50 L-22,50 L-22,45 L-23,45 L-23,37 L-22,37 L-22,30 L-21,30 L-21,26 L-20,26 L-20,23 L-19,23 L-19,21 L-18,21 L-18,18 L-17,18 L-17,16 L-16,16 L-16,14 L-15,14 L-15,13 L-14,13 L-14,11 L-13,11 L-13,10 L-12,10 L-12,9 L-11,9 L-11,8 L-10,8 L-10,7 L-9,7 L-9,6 L-8,6 L-8,5 L-7,5 L-7,4 L-5,4 L-5,3 L-4,3 L-4,2 L-2,2 L-2,1 L0,1 Z " fill="#F8FAFB" transform="translate(1065,464)"/>
<path d="M0,0 L6,0 L6,1 L7,1 L7,2 L9,2 L9,3 L10,3 L10,4 L11,4 L11,6 L12,6 L12,8 L13,8 L13,27 L12,27 L12,29 L11,29 L11,33 L10,33 L10,37 L9,37 L9,39 L8,39 L8,41 L7,41 L7,43 L6,43 L6,45 L5,45 L5,47 L4,47 L4,48 L3,48 L3,50 L2,50 L2,51 L1,51 L1,52 L0,52 L0,53 L-1,53 L-1,54 L-3,54 L-3,55 L-4,55 L-4,56 L-6,56 L-6,57 L-9,57 L-9,58 L-18,58 L-18,57 L-21,57 L-21,56 L-24,56 L-24,55 L-25,55 L-25,54 L-26,54 L-26,52 L-25,52 L-25,43 L-24,43 L-24,38 L-23,38 L-23,30 L-22,30 L-22,25 L-21,25 L-21,22 L-20,22 L-20,20 L-19,20 L-19,18 L-18,18 L-18,16 L-17,16 L-17,14 L-16,14 L-16,13 L-15,13 L-15,12 L-14,12 L-14,10 L-13,10 L-13,9 L-12,9 L-12,8 L-11,8 L-11,7 L-10,7 L-10,6 L-9,6 L-9,5 L-8,5 L-8,4 L-7,4 L-7,3 L-5,3 L-5,2 L-4,2 L-4,1 L0,1 Z " fill="#F9FBFB" transform="translate(768,466)"/>
<path d="M0,0 L7,0 L7,1 L11,1 L11,2 L13,2 L13,3 L14,3 L14,4 L15,4 L15,5 L16,5 L16,6 L17,6 L17,8 L18,8 L18,17 L17,17 L17,18 L16,18 L16,20 L15,20 L15,21 L14,21 L14,22 L13,22 L13,23 L11,23 L11,24 L9,24 L9,25 L-3,25 L-3,24 L-4,24 L-4,23 L-6,23 L-6,22 L-7,22 L-7,21 L-8,21 L-8,19 L-9,19 L-9,16 L-10,16 L-10,10 L-9,10 L-9,8 L-8,8 L-8,6 L-7,6 L-7,5 L-6,5 L-6,4 L-5,4 L-5,3 L-4,3 L-4,2 L-2,2 L-2,1 L0,1 Z " fill="#0A3F4F" transform="translate(636,416)"/>
<path d="M0,0 L8,0 L8,1 L9,1 L9,2 L10,2 L10,3 L11,3 L11,4 L12,4 L12,14 L11,14 L11,16 L10,16 L10,18 L9,18 L9,19 L8,19 L8,20 L7,20 L7,21 L6,21 L6,22 L5,22 L5,23 L3,23 L3,24 L2,24 L2,25 L0,25 L0,26 L-4,26 L-4,27 L-8,27 L-8,28 L-17,28 L-17,25 L-16,25 L-16,21 L-15,21 L-15,18 L-14,18 L-14,16 L-13,16 L-13,14 L-12,14 L-12,12 L-11,12 L-11,10 L-10,10 L-10,9 L-9,9 L-9,7 L-8,7 L-8,6 L-7,6 L-7,5 L-6,5 L-6,4 L-5,4 L-5,3 L-3,3 L-3,2 L-2,2 L-2,1 L0,1 Z " fill="#F5F9FA" transform="translate(853,463)"/>
<path d="M0,0 L112,0 L112,2 L111,2 L111,3 L110,3 L110,2 L0,2 Z " fill="#264957" transform="translate(956,417)"/>
<path d="M0,0 L1,0 L1,6 L0,6 L0,15 L22,15 L22,2 L23,2 L23,16 L-1,16 L-1,8 L-2,8 L-2,5 L-4,5 L-4,4 L-3,4 L-3,3 L-2,3 L-2,2 L-1,2 L-1,1 L0,1 Z " fill="#C4D9E2" transform="translate(1074,518)"/>
<path d="M0,0 L1,0 L1,4 L0,4 L0,6 L1,6 L1,7 L0,7 L0,8 L1,8 L1,9 L-1,9 L-1,10 L-2,10 L-2,17 L-3,17 L-3,21 L-4,21 L-4,28 L-5,28 L-5,16 L-4,16 L-4,7 L-3,7 L-3,3 L-2,3 L-2,1 L-1,1 L-1,2 L0,2 Z " fill="#244D59" transform="translate(1023,487)"/>
<path d="M0,0 L1,0 L1,4 L3,4 L3,19 L4,19 L4,17 L5,17 L5,16 L6,16 L6,15 L7,15 L7,14 L9,14 L9,15 L8,15 L8,17 L7,17 L7,19 L6,19 L6,21 L5,21 L5,25 L4,25 L4,26 L3,26 L3,22 L2,22 L2,14 L1,14 L1,5 L0,5 Z " fill="#FEE3CF" transform="translate(402,457)"/>
<path d="M0,0 L1,0 L1,10 L0,10 L0,16 L-1,16 L-1,12 L-2,12 L-2,11 L-3,11 L-3,12 L-4,12 L-4,14 L-5,14 L-5,15 L-6,15 L-6,16 L-7,16 L-7,17 L-8,17 L-8,15 L-7,15 L-7,13 L-6,13 L-6,11 L-5,11 L-5,9 L-4,9 L-4,7 L-3,7 L-3,5 L-2,5 L-2,4 L-1,4 L-1,2 L0,2 Z " fill="#E6F3F7" transform="translate(541,413)"/>
<path d="M0,0 L1,0 L1,3 L0,3 L0,4 L-1,4 L-1,5 L0,5 L0,7 L-1,7 L-1,8 L14,8 L14,9 L-8,9 L-8,8 L-7,8 L-7,7 L-6,7 L-6,6 L-5,6 L-5,5 L-4,5 L-4,4 L-3,4 L-3,3 L-2,3 L-2,2 L-1,2 L-1,1 L0,1 Z " fill="#CEE3E7" transform="translate(552,402)"/>
<path d="M0,0 L1,0 L1,24 L0,24 L0,25 L-1,25 L-1,33 L-3,33 L-3,29 L-2,29 L-2,23 L-1,23 L-1,13 L0,13 Z " fill="#FDDDC6" transform="translate(348,469)"/>
<path d="M0,0 L1,0 L1,6 L2,6 L2,13 L3,13 L3,35 L2,35 L2,18 L1,18 L1,15 L0,15 Z " fill="#E07B50" transform="translate(345,447)"/>
<path d="M0,0 L1,0 L1,14 L0,14 L0,19 L-1,19 L-1,21 L-2,21 L-2,24 L-1,24 L-1,26 L-2,26 L-2,27 L-3,27 L-3,29 L-4,29 L-4,25 L-3,25 L-3,19 L-2,19 L-2,14 L-1,14 L-1,8 L0,8 Z " fill="#D1E5EA" transform="translate(1197,467)"/>
<path d="M0,0 L1,0 L1,5 L2,5 L2,9 L3,9 L3,19 L4,19 L4,27 L3,27 L3,28 L2,28 L2,13 L1,13 L1,10 L0,10 Z " fill="#E27845" transform="translate(399,443)"/>
<path d="M0,0 L1,0 L1,8 L2,8 L2,10 L1,10 L1,11 L0,11 L0,12 L-1,12 L-1,25 L-2,25 L-2,21 L-3,21 L-3,14 L-2,14 L-2,10 L-1,10 L-1,4 L0,4 Z " fill="#E57A4A" transform="translate(366,518)"/>
<path d="M0,0 L14,0 L14,2 L13,2 L13,3 L1,3 L1,2 L-1,2 L-1,1 L0,1 Z " fill="#043540" transform="translate(1161,453)"/>
<path d="M0,0 L1,0 L1,11 L0,11 L0,12 L-1,12 L-1,18 L0,18 L0,21 L-1,21 L-1,23 L-2,23 L-2,24 L-3,24 L-3,27 L-4,27 L-4,23 L-3,23 L-3,18 L-2,18 L-2,11 L-1,11 L-1,8 L0,8 Z " fill="#CFE1E7" transform="translate(564,421)"/>
<path d="M0,0 L1,0 L1,6 L2,6 L2,10 L1,10 L1,11 L0,11 L0,12 L1,12 L1,16 L0,16 L0,17 L-1,17 L-1,18 L-2,18 L-2,19 L-5,19 L-5,18 L-4,18 L-4,16 L-3,16 L-3,15 L-2,15 L-2,13 L-1,13 L-1,10 L0,10 Z " fill="#E0ECF0" transform="translate(710,505)"/>
<path d="M0,0 L1,0 L1,6 L3,6 L3,8 L2,8 L2,7 L1,7 L1,10 L2,10 L2,16 L1,16 L1,17 L-1,17 L-1,18 L-2,18 L-2,14 L-1,14 L-1,8 L0,8 Z " fill="#1C4959" transform="translate(621,477)"/>
<path d="M0,0 L1,0 L1,2 L0,2 L0,4 L-1,4 L-1,5 L-2,5 L-2,6 L-4,6 L-4,16 L-3,16 L-3,17 L-2,17 L-2,18 L-3,18 L-3,19 L-4,19 L-4,17 L-5,17 L-5,14 L-6,14 L-6,7 L-5,7 L-5,5 L-4,5 L-4,3 L-3,3 L-3,2 L-2,2 L-2,1 L0,1 Z " fill="#DB7A49" transform="translate(303,399)"/>
<path d="M0,0 L12,0 L12,2 L8,2 L8,3 L6,3 L6,4 L4,4 L4,5 L2,5 L2,2 L-3,2 L-3,1 L0,1 Z " fill="#2C4C58" transform="translate(561,389)"/>
<path d="M0,0 L1,0 L1,5 L2,5 L2,8 L1,8 L1,11 L0,11 L0,20 L-1,20 L-1,21 L-2,21 L-2,12 L-1,12 L-1,6 L0,6 Z " fill="#D7EAEE" transform="translate(737,548)"/>
<path d="M0,0 L1,0 L1,1 L4,1 L4,2 L2,2 L2,3 L1,3 L1,4 L-2,4 L-2,5 L-7,5 L-7,6 L-12,6 L-12,5 L-19,5 L-19,4 L-3,4 L-3,2 L-1,2 L-1,1 L0,1 Z " fill="#DF733F" transform="translate(332,521)"/>
<path d="M0,0 L1,0 L1,7 L0,7 L0,9 L-1,9 L-1,13 L-2,13 L-2,17 L-3,17 L-3,9 L-4,9 L-4,7 L-3,7 L-3,5 L-1,5 L-1,1 L0,1 Z " fill="#FEEDE1" transform="translate(316,483)"/>
<path d="M0,0 L1,0 L1,5 L0,5 L0,9 L-1,9 L-1,15 L-2,15 L-2,19 L-3,19 L-3,7 L-2,7 L-2,4 L-1,4 L-1,1 L0,1 Z " fill="#FEE9D6" transform="translate(366,513)"/>
<path d="M0,0 L1,0 L1,1 L2,1 L2,2 L9,2 L9,3 L14,3 L14,2 L17,2 L17,4 L16,4 L16,5 L7,5 L7,4 L5,4 L5,3 L1,3 L1,2 L0,2 Z " fill="#FCE5D2" transform="translate(311,524)"/>
<path d="M0,0 L1,0 L1,1 L2,1 L2,4 L1,4 L1,7 L2,7 L2,8 L0,8 L0,15 L-2,15 L-2,19 L-4,19 L-4,17 L-3,17 L-3,13 L-2,13 L-2,9 L-1,9 L-1,7 L0,7 Z " fill="#E0784B" transform="translate(317,483)"/>
<path d="M0,0 L13,0 L13,1 L1,1 L1,2 L0,2 L0,3 L-1,3 L-1,4 L-2,4 L-2,3 L-3,3 L-3,6 L-5,6 L-5,7 L-6,7 L-6,11 L-7,11 L-7,6 L-6,6 L-6,5 L-5,5 L-5,3 L-4,3 L-4,2 L-2,2 L-2,1 L0,1 Z " fill="#D2E3E8" transform="translate(686,464)"/>
<path d="M0,0 L1,0 L1,3 L2,3 L2,6 L3,6 L3,9 L4,9 L4,12 L5,12 L5,15 L6,15 L6,19 L3,19 L3,18 L4,18 L4,14 L3,14 L3,10 L2,10 L2,8 L-1,8 L-1,6 L1,6 L1,4 L0,4 Z " fill="#FBDCC6" transform="translate(353,413)"/>
<path d="M0,0 L1,0 L1,17 L2,17 L2,18 L0,18 L0,17 L-1,17 L-1,16 L-2,16 L-2,14 L-1,14 L-1,5 L0,5 Z " fill="#D3E6E9" transform="translate(744,504)"/>
<path d="M0,0 L6,0 L6,1 L2,1 L2,2 L0,2 L0,3 L-1,3 L-1,4 L-5,4 L-5,5 L-6,5 L-6,6 L-7,6 L-7,7 L-8,7 L-8,8 L-9,8 L-9,9 L-10,9 L-10,10 L-12,10 L-12,9 L-11,9 L-11,8 L-10,8 L-10,7 L-9,7 L-9,6 L-8,6 L-8,5 L-7,5 L-7,4 L-6,4 L-6,3 L-4,3 L-4,2 L-2,2 L-2,1 L0,1 Z " fill="#D9ECF0" transform="translate(574,466)"/>
<path d="M0,0 L1,0 L1,2 L2,2 L2,3 L1,3 L1,5 L0,5 L0,6 L-1,6 L-1,8 L-2,8 L-2,9 L-3,9 L-3,11 L-4,11 L-4,2 L-3,2 L-3,3 L-2,3 L-2,2 L0,2 Z " fill="#CBE0E4" transform="translate(924,464)"/>
<path d="M0,0 L1,0 L1,6 L2,6 L2,7 L1,7 L1,8 L0,8 L0,12 L1,12 L1,16 L0,16 L0,17 L-1,17 L-1,18 L-2,18 L-2,12 L-1,12 L-1,6 L0,6 Z " fill="#C3D8DC" transform="translate(604,496)"/>
<path d="M0,0 L1,0 L1,8 L0,8 L0,9 L-1,9 L-1,14 L-3,14 L-3,17 L-5,17 L-5,15 L-4,15 L-4,13 L-3,13 L-3,11 L-2,11 L-2,7 L-1,7 L-1,4 L0,4 Z " fill="#FDE7CF" transform="translate(344,502)"/>
<path d="M0,0 L1,0 L1,4 L0,4 L0,6 L1,6 L1,7 L0,7 L0,8 L1,8 L1,9 L-1,9 L-1,10 L-3,10 L-3,3 L-2,3 L-2,1 L-1,1 L-1,2 L0,2 Z " fill="#164556" transform="translate(1023,487)"/>
<path d="M0,0 L2,0 L2,1 L1,1 L1,3 L0,3 L0,5 L-1,5 L-1,7 L-2,7 L-2,11 L-3,11 L-3,12 L-4,12 L-4,5 L-3,5 L-3,3 L-2,3 L-2,2 L-1,2 L-1,1 L0,1 Z " fill="#E0E7E5" transform="translate(409,471)"/>
<path d="M0,0 L1,0 L1,4 L2,4 L2,6 L1,6 L1,9 L0,9 L0,12 L1,12 L1,14 L2,14 L2,15 L1,15 L1,16 L0,16 L0,15 L-2,15 L-2,12 L-1,12 L-1,6 L0,6 Z " fill="#DBEAEE" transform="translate(646,464)"/>
<path d="M0,0 L1,0 L1,3 L2,3 L2,6 L3,6 L3,9 L4,9 L4,12 L5,12 L5,14 L4,14 L4,13 L3,13 L3,12 L2,12 L2,9 L0,9 Z " fill="#E47646" transform="translate(387,399)"/>
<path d="M0,0 L2,0 L2,1 L3,1 L3,2 L2,2 L2,4 L0,4 L0,5 L-1,5 L-1,6 L-2,6 L-2,9 L-3,9 L-3,8 L-4,8 L-4,6 L-5,6 L-5,5 L-4,5 L-4,4 L-2,4 L-2,3 L-1,3 L-1,1 L0,1 Z M3,0 L4,0 L4,1 L3,1 Z " fill="#174651" transform="translate(529,403)"/>
<path d="M0,0 L2,0 L2,1 L4,1 L4,2 L7,2 L7,3 L8,3 L8,4 L17,4 L17,5 L5,5 L5,4 L4,4 L4,3 L2,3 L2,2 L1,2 L1,1 L0,1 Z " fill="#E48151" transform="translate(367,547)"/>
<path d="M0,0 L1,0 L1,3 L0,3 L0,9 L-1,9 L-1,13 L-2,13 L-2,17 L-3,17 L-3,8 L-2,8 L-2,7 L-1,7 L-1,1 L0,1 Z " fill="#E07040" transform="translate(346,489)"/>
<path d="M0,0 L2,0 L2,2 L-1,2 L-1,3 L-2,3 L-2,4 L-3,4 L-3,5 L-4,5 L-4,7 L-6,7 L-6,8 L-7,8 L-7,9 L-8,9 L-8,10 L-10,10 L-10,9 L-9,9 L-9,8 L-8,8 L-8,7 L-7,7 L-7,5 L-6,5 L-6,4 L-4,4 L-4,3 L-3,3 L-3,2 L-2,2 L-2,1 L0,1 Z " fill="#D9E8ED" transform="translate(932,475)"/>
<path d="M0,0 L1,0 L1,1 L3,1 L3,3 L-10,3 L-10,2 L-8,2 L-8,1 L0,1 Z " fill="#C8DDE2" transform="translate(951,450)"/>
<path d="M0,0 L1,0 L1,3 L2,3 L2,4 L1,4 L1,5 L0,5 L0,7 L-2,7 L-2,6 L-3,6 L-3,7 L-4,7 L-4,8 L-6,8 L-6,7 L-5,7 L-5,6 L-4,6 L-4,5 L-3,5 L-3,3 L-2,3 L-2,2 L-1,2 L-1,1 L0,1 Z " fill="#1C4B58" transform="translate(444,396)"/>
<path d="M0,0 L1,0 L1,2 L0,2 L0,7 L-1,7 L-1,4 L-2,4 L-2,6 L-3,6 L-3,7 L-5,7 L-5,8 L-7,8 L-7,9 L-9,9 L-9,8 L-8,8 L-8,7 L-6,7 L-6,6 L-5,6 L-5,5 L-4,5 L-4,4 L-3,4 L-3,3 L-2,3 L-2,2 L-1,2 L-1,1 L0,1 Z " fill="#D1E2EA" transform="translate(1166,520)"/>
<path d="M0,0 L2,0 L2,1 L1,1 L1,5 L0,5 L0,7 L-1,7 L-1,6 L-3,6 L-3,5 L-4,5 L-4,4 L-5,4 L-5,3 L-3,3 L-3,2 L-2,2 L-2,1 L0,1 Z " fill="#2F5C63" transform="translate(879,513)"/>
<path d="M0,0 L1,0 L1,3 L0,3 L0,4 L-1,4 L-1,8 L-2,8 L-2,9 L-6,9 L-6,10 L-8,10 L-8,9 L-7,9 L-7,8 L-5,8 L-5,7 L-4,7 L-4,6 L-3,6 L-3,4 L-2,4 L-2,3 L-1,3 L-1,2 L0,2 Z " fill="#E0ECF0" transform="translate(884,482)"/>
<path d="M0,0 L1,0 L1,1 L3,1 L3,6 L2,6 L2,7 L1,7 L1,8 L-1,8 L-1,4 L0,4 Z " fill="#204957" transform="translate(1164,533)"/>
<path d="M0,0 L1,0 L1,4 L3,4 L3,5 L11,5 L11,6 L-1,6 L-1,1 L0,1 Z " fill="#18424C" transform="translate(525,527)"/>
<path d="M0,0 L2,0 L2,1 L4,1 L4,2 L3,2 L3,3 L2,3 L2,4 L0,4 L0,5 L-2,5 L-2,6 L-4,6 L-4,7 L-7,7 L-7,6 L-5,6 L-5,4 L-2,4 L-2,3 L1,3 L1,2 L0,2 Z " fill="#214D5A" transform="translate(478,528)"/>
<path d="M0,0 L1,0 L1,6 L0,6 L0,9 L-1,9 L-1,8 L-2,8 L-2,5 L-4,5 L-4,4 L-3,4 L-3,3 L-2,3 L-2,2 L-1,2 L-1,1 L0,1 Z " fill="#D2EAED" transform="translate(1074,518)"/>
<path d="M0,0 L1,0 L1,1 L2,1 L2,2 L3,2 L3,3 L4,3 L4,6 L3,6 L3,8 L2,8 L2,10 L1,10 L1,5 L0,5 Z " fill="#C7E0E3" transform="translate(481,479)"/>
<path d="M0,0 L1,0 L1,2 L2,2 L2,4 L1,4 L1,11 L0,11 L0,10 L-2,10 L-2,9 L-1,9 L-1,2 L0,2 Z " fill="#E9F7F6" transform="translate(974,520)"/>
<path d="M0,0 L2,0 L2,2 L1,2 L1,3 L0,3 L0,4 L-1,4 L-1,5 L-2,5 L-2,6 L-4,6 L-4,7 L-5,7 L-5,8 L-6,8 L-6,9 L-7,9 L-7,7 L-6,7 L-6,6 L-5,6 L-5,5 L-4,5 L-4,4 L-3,4 L-3,3 L-2,3 L-2,2 L-1,2 L-1,1 L0,1 Z " fill="#E4F1F6" transform="translate(761,469)"/>
<path d="M0,0 L1,0 L1,2 L0,2 L0,3 L-1,3 L-1,4 L-2,4 L-2,6 L-3,6 L-3,7 L-4,7 L-4,8 L-6,8 L-6,7 L-7,7 L-7,6 L-6,6 L-6,5 L-5,5 L-5,4 L-4,4 L-4,3 L-3,3 L-3,2 L-1,2 L-1,1 L0,1 Z " fill="#1E4A53" transform="translate(1040,462)"/>
<path d="M0,0 L1,0 L1,8 L0,8 L0,11 L1,11 L1,13 L-1,13 L-1,15 L-2,15 L-2,11 L-1,11 L-1,5 L0,5 Z " fill="#C6DCE0" transform="translate(1106,459)"/>
<path d="M0,0 L3,0 L3,2 L2,2 L2,5 L1,5 L1,4 L0,4 L0,5 L-1,5 L-1,4 L-2,4 L-2,3 L-5,3 L-5,2 L-3,2 L-3,1 L0,1 Z " fill="#204D60" transform="translate(1054,455)"/>
<path d="M0,0 L1,0 L1,10 L0,10 L0,6 L-1,6 L-1,7 L-2,7 L-2,8 L-3,8 L-3,9 L-4,9 L-4,7 L-3,7 L-3,5 L-2,5 L-2,4 L-1,4 L-1,2 L0,2 Z " fill="#D2E6EC" transform="translate(541,413)"/>
<path d="M0,0 L2,0 L2,1 L3,1 L3,2 L5,2 L5,3 L4,3 L4,4 L3,4 L3,5 L0,5 L0,8 L-1,8 L-1,4 L0,4 Z " fill="#27505D" transform="translate(649,516)"/>
<path d="M0,0 L4,0 L4,1 L6,1 L6,3 L4,3 L4,2 L0,2 L0,3 L-1,3 L-1,4 L-2,4 L-2,5 L-3,5 L-3,3 L-4,3 L-4,2 L-2,2 L-2,1 L0,1 Z " fill="#174153" transform="translate(941,453)"/>
<path d="M0,0 L1,0 L1,2 L0,2 L0,3 L-1,3 L-1,4 L-5,4 L-5,5 L-6,5 L-6,7 L-7,7 L-7,6 L-8,6 L-8,5 L-9,5 L-9,4 L-6,4 L-6,3 L-4,3 L-4,2 L-2,2 L-2,1 L0,1 Z " fill="#D5E7EA" transform="translate(699,528)"/>
<path d="M0,0 L1,0 L1,4 L2,4 L2,8 L3,8 L3,9 L2,9 L2,10 L1,10 L1,13 L0,13 Z " fill="#CE7243" transform="translate(403,475)"/>
<path d="M0,0 L2,0 L2,1 L1,1 L1,2 L0,2 L0,3 L-1,3 L-1,5 L-2,5 L-2,6 L-3,6 L-3,7 L-4,7 L-4,8 L-5,8 L-5,9 L-7,9 L-7,8 L-6,8 L-6,7 L-5,7 L-5,5 L-4,5 L-4,4 L-3,4 L-3,3 L-2,3 L-2,2 L-1,2 L-1,1 L0,1 Z " fill="#DAEAEE" transform="translate(1150,468)"/>
<path d="M0,0 L1,0 L1,1 L0,1 Z M2,0 L4,0 L4,2 L6,2 L6,3 L9,3 L9,4 L3,4 L3,3 L-2,3 L-2,2 L-1,2 L-1,1 L0,1 L0,2 L2,2 Z " fill="#03323D" transform="translate(1071,460)"/>
<path d="M0,0 L1,0 L1,2 L2,2 L2,4 L3,4 L3,6 L2,6 L2,9 L1,9 L1,6 L-1,6 L-1,1 L0,1 Z " fill="#194651" transform="translate(465,400)"/>
<path d="M0,0 L1,0 L1,1 L3,1 L3,0 L7,0 L7,1 L4,1 L4,2 L2,2 L2,3 L0,3 L0,4 L-2,4 L-2,5 L-3,5 L-3,4 L-4,4 L-4,3 L-3,3 L-3,2 L-1,2 L-1,1 L0,1 Z " fill="#E3F1F6" transform="translate(540,392)"/>
<path d="M0,0 L1,0 L1,3 L2,3 L2,9 L1,9 L1,10 L-1,10 L-1,7 L0,7 Z " fill="#C9DEDE" transform="translate(739,534)"/>
<path d="M0,0 L2,0 L2,1 L1,1 L1,2 L0,2 L0,3 L-2,3 L-2,4 L-4,4 L-4,3 L-10,3 L-10,2 L-4,2 L-4,1 L0,1 Z " fill="#CBDDE4" transform="translate(773,532)"/>
<path d="M0,0 L2,0 L2,1 L1,1 L1,2 L-1,2 L-1,3 L-2,3 L-2,4 L-10,4 L-10,3 L-6,3 L-6,2 L-3,2 L-3,1 L0,1 Z " fill="#C8E0E5" transform="translate(870,529)"/>
<path d="M0,0 L1,0 L1,7 L0,7 L0,9 L-3,9 L-3,7 L-2,7 L-2,5 L-1,5 L-1,3 L0,3 Z " fill="#E47548" transform="translate(312,503)"/>
<path d="M0,0 L1,0 L1,1 L2,1 L2,0 L3,0 L3,3 L2,3 L2,5 L1,5 L1,6 L0,6 L0,7 L-1,7 L-1,6 L-2,6 L-2,5 L-1,5 L-1,2 L0,2 Z " fill="#174752" transform="translate(496,458)"/>
<path d="M0,0 L2,0 L2,2 L3,2 L3,3 L-3,3 L-3,2 L-6,2 L-6,3 L-7,3 L-7,1 L0,1 Z " fill="#1E4B5A" transform="translate(1151,521)"/>
<path d="M0,0 L1,0 L1,1 L2,1 L2,2 L3,2 L3,3 L2,3 L2,4 L1,4 L1,6 L0,6 L0,8 L-1,8 L-1,7 L-2,7 L-2,5 L-1,5 L-1,2 L0,2 Z " fill="#1A465A" transform="translate(1116,481)"/>
<path d="M0,0 L1,0 L1,7 L2,7 L2,8 L1,8 L1,10 L0,10 L0,12 L-1,12 L-1,5 L0,5 Z " fill="#D7EEF2" transform="translate(922,454)"/>
<path d="M0,0 L1,0 L1,3 L2,3 L2,8 L1,8 L1,9 L0,9 L0,10 L-1,10 L-1,6 L0,6 Z " fill="#264C60" transform="translate(541,423)"/>
<path d="M0,0 L3,0 L3,4 L4,4 L4,5 L5,5 L5,9 L4,9 L4,7 L3,7 L3,5 L2,5 L2,4 L1,4 L1,2 L0,2 Z " fill="#FEEAD4" transform="translate(332,412)"/>
<path d="M0,0 L3,0 L3,2 L2,2 L2,3 L1,3 L1,13 L0,13 Z " fill="#FEF3E6" transform="translate(341,376)"/>
<path d="M0,0 L2,0 L2,2 L1,2 L1,3 L0,3 L0,4 L-1,4 L-1,5 L-3,5 L-3,7 L-5,7 L-5,6 L-4,6 L-4,4 L-3,4 L-3,3 L-2,3 L-2,2 L-1,2 L-1,1 L0,1 Z " fill="#FEE9D6" transform="translate(412,529)"/>
<path d="M0,0 L1,0 L1,4 L2,4 L2,8 L1,8 L1,9 L0,9 L0,10 L-1,10 L-1,6 L0,6 Z " fill="#C2DBDE" transform="translate(913,516)"/>
<path d="M0,0 L1,0 L1,7 L2,7 L2,10 L0,10 L0,11 L-1,11 L-1,7 L0,7 Z " fill="#CAD9E1" transform="translate(638,511)"/>
<path d="M0,0 L1,0 L1,3 L0,3 L0,5 L-1,5 L-1,7 L-2,7 L-2,8 L-5,8 L-5,7 L-4,7 L-4,6 L-3,6 L-3,5 L-2,5 L-2,3 L-1,3 L-1,1 L0,1 Z " fill="#D9EDF0" transform="translate(500,509)"/>
<path d="M0,0 L1,0 L1,3 L2,3 L2,4 L1,4 L1,6 L0,6 L0,8 L-1,8 L-1,9 L-2,9 L-2,5 L-1,5 L-1,2 L0,2 Z " fill="#CEE2E3" transform="translate(748,486)"/>
<path d="M0,0 L2,0 L2,1 L3,1 L3,2 L2,2 L2,3 L1,3 L1,4 L0,4 L0,5 L-1,5 L-1,6 L-2,6 L-2,7 L-3,7 L-3,5 L-2,5 L-2,3 L-1,3 L-1,1 L0,1 Z " fill="#133F49" transform="translate(1028,474)"/>
<path d="M0,0 L8,0 L8,1 L4,1 L4,2 L1,2 L1,3 L-1,3 L-1,2 L-2,2 L-2,1 L0,1 Z M-2,3 L-1,3 L-1,4 L-2,4 Z " fill="#D1E7EB" transform="translate(853,463)"/>
<path d="M0,0 L1,0 L1,3 L2,3 L2,7 L3,7 L3,10 L2,10 L2,11 L1,11 L1,10 L0,10 L0,8 L1,8 L1,4 L0,4 Z " fill="#E7F6F8" transform="translate(272,451)"/>
<path d="M0,0 L2,0 L2,1 L3,1 L3,3 L2,3 L2,4 L1,4 L1,5 L0,5 L0,7 L-2,7 L-2,5 L-1,5 L-1,3 L0,3 Z " fill="#134551" transform="translate(425,432)"/>
<path d="M0,0 L2,0 L2,5 L3,5 L3,8 L1,8 L1,6 L0,6 Z " fill="#254C5B" transform="translate(626,426)"/>
<path d="M0,0 L1,0 L1,2 L0,2 L0,4 L-1,4 L-1,5 L-2,5 L-2,6 L-5,6 L-5,5 L-4,5 L-4,3 L-3,3 L-3,2 L-2,2 L-2,1 L0,1 Z " fill="#E37542" transform="translate(303,399)"/>
</svg>
