<svg width="512" height="485" xmlns="http://www.w3.org/2000/svg">
 <!--!Font Awesome Free 7.1.0 by @fontawesome - https://fontawesome.com License - https://fontawesome.com/license/free Copyright 2025 Fonticons, Inc.-->

 <g>
  <title>Layer 1</title>
  <g>
   <!--!Font Awesome Free 7.1.0 by @fontawesome - https://fontawesome.com License - https://fontawesome.com/license/free Copyright 2025 Fonticons, Inc.-->
   <path fill="#0d4254" d="m256,109.3l0,309.3l0.5,-0.2c54.6,-22.7 113.2,-34.4 172.3,-34.4l19.2,0l0,-320l-19.2,0c-42.2,0 -84.1,8.4 -123.1,24.6c-16.8,7 -33.4,13.9 -49.7,20.7zm-25.1,-79.8l25.1,10.5l25.1,-10.5c46.8,-19.5 97,-29.5 147.7,-29.5l35.2,0c26.5,0 48,21.5 48,48l0,352c0,26.5 -21.5,48 -48,48l-35.2,0c-50.7,0 -100.9,10 -147.7,29.5l-12.8,5.3c-7.9,3.3 -16.7,3.3 -24.6,0l-12.8,-5.3c-46.8,-19.5 -97,-29.5 -147.7,-29.5l-35.2,0c-26.5,0 -48,-21.5 -48,-48l0,-352c0,-26.5 21.5,-48 48,-48l35.2,0c50.7,0 100.9,10 147.7,29.5z"/>
  </g>
  <g>
   <!--!Font Awesome Free 7.1.0 by @fontawesome - https://fontawesome.com License - https://fontawesome.com/license/free Copyright 2025 Fonticons, Inc.-->
  </g>
  <g>
   <!--!Font Awesome Free 7.1.0 by @fontawesome - https://fontawesome.com License - https://fontawesome.com/license/free Copyright 2025 Fonticons, Inc.-->
   <path fill="#f6745e" d="m273.42857,137.92857c0,-9.64018 -7.78839,-17.42857 -17.42857,-17.42857c-9.64018,0 -17.42857,7.78839 -17.42857,17.42857l0,87.14286l-87.14286,0c-9.64018,0 -17.42857,7.78839 -17.42857,17.42857c0,9.64018 7.78839,17.42857 17.42857,17.42857l87.14286,0l0,87.14286c0,9.64018 7.78839,17.42857 17.42857,17.42857c9.64018,0 17.42857,-7.78839 17.42857,-17.42857l0,-87.14286l87.14286,0c9.64018,0 17.42857,-7.78839 17.42857,-17.42857c0,-9.64018 -7.78839,-17.42857 -17.42857,-17.42857l-87.14286,0l0,-87.14286z"/>
  </g>
 </g>
</svg>