<svg width="512" height="485" xmlns="http://www.w3.org/2000/svg">
 <!--!Font Awesome Free 7.1.0 by @fontawesome - https://fontawesome.com License - https://fontawesome.com/license/free Copyright 2025 Fonticons, Inc.-->

 <g>
  <title>Layer 1</title>
  <g>
   <!--!Font Awesome Free 7.1.0 by @fontawesome - https://fontawesome.com License - https://fontawesome.com/license/free Copyright 2025 Fonticons, Inc.-->
   <path fill="#0d4254" d="m256,109.3l0,309.3l0.5,-0.2c54.6,-22.7 113.2,-34.4 172.3,-34.4l19.2,0l0,-320l-19.2,0c-42.2,0 -84.1,8.4 -123.1,24.6c-16.8,7 -33.4,13.9 -49.7,20.7zm-25.1,-79.8l25.1,10.5l25.1,-10.5c46.8,-19.5 97,-29.5 147.7,-29.5l35.2,0c26.5,0 48,21.5 48,48l0,352c0,26.5 -21.5,48 -48,48l-35.2,0c-50.7,0 -100.9,10 -147.7,29.5l-12.8,5.3c-7.9,3.3 -16.7,3.3 -24.6,0l-12.8,-5.3c-46.8,-19.5 -97,-29.5 -147.7,-29.5l-35.2,0c-26.5,0 -48,-21.5 -48,-48l0,-352c0,-26.5 21.5,-48 48,-48l35.2,0c50.7,0 100.9,10 147.7,29.5z"/>
  </g>
  <g>
   <!--!Font Awesome Free 7.1.0 by @fontawesome - https://fontawesome.com License - https://fontawesome.com/license/free Copyright 2025 Fonticons, Inc.-->
   <path fill="#f6745e" d="m228.41134,131.43003c1.35176,-6.6687 7.25447,-11.49 14.10341,-11.49l26.94517,0c6.84894,0 12.75164,4.82129 14.10341,11.49l6.53353,31.54117c6.35329,2.70353 12.30106,6.17306 17.70811,10.27341l30.54987,-10.13823c6.48847,-2.16282 13.60776,0.54071 17.03223,6.48847l13.47258,23.34046c3.42447,5.94776 2.20788,13.42753 -2.92882,17.97847l-24.01635,21.35788c0.40553,3.33435 0.58576,6.75882 0.58576,10.22835c0,3.46953 -0.22529,6.894 -0.58576,10.22835l24.06141,21.40294c5.1367,4.55094 6.30823,12.07576 2.92882,17.97847l-13.47258,23.34046c-3.42447,5.9027 -10.54376,8.65129 -17.03223,6.48847l-30.54987,-10.13823c-5.45212,4.10035 -11.39988,7.52482 -17.70811,10.27341l-6.48847,31.49611c-1.39682,6.71376 -7.29953,11.49 -14.10341,11.49l-26.94517,0c-6.84894,0 -12.75164,-4.82129 -14.10341,-11.49l-6.48847,-31.49611c-6.35329,-2.70353 -12.256,-6.17306 -17.70811,-10.27341l-30.68505,10.13823c-6.48847,2.16282 -13.60776,-0.54071 -17.03223,-6.48847l-13.47258,-23.34046c-3.42447,-5.94776 -2.20788,-13.42753 2.92882,-17.97847l24.06141,-21.40294c-0.40553,-3.33435 -0.58576,-6.75882 -0.58576,-10.22835c0,-3.46953 0.22529,-6.894 0.58576,-10.22835l-24.06141,-21.40294c-5.1367,-4.55094 -6.30823,-12.07576 -2.92882,-17.97847l13.47258,-23.34046c3.42447,-5.94776 10.54376,-8.65129 17.03223,-6.48847l30.54987,10.13823c5.45212,-4.10035 11.39988,-7.52482 17.70811,-10.27341l6.53353,-31.49611zm27.57599,147.11702c19.916,-0.09012 36.00199,-16.26623 35.91187,-36.18223c-0.09012,-19.916 -16.26623,-36.00199 -36.18223,-35.91187c-19.916,0.09012 -36.00199,16.26623 -35.91187,36.18223c0.09012,19.916 16.26623,36.00199 36.18223,35.91187z"/>
  </g>
 </g>
</svg>